<svg xmlns="http://www.w3.org/2000/svg" xmlns:xlink="http://www.w3.org/1999/xlink" width="512" height="512" enable-background="new 0 0 463.002 463.002" version="1.1" viewBox="0 0 463.002 463.002"><g><path fill="#2bdc89" d="m334.4,134.558c-24.108-56.528-62.792-101.428-114.976-133.45-2.624-1.61-5.966-1.454-8.428,0.396-2.461,1.85-3.542,5.016-2.726,7.985 4.997,18.17-9.93,36.146-30.59,61.027-31.094,37.447-73.679,88.732-73.679,176.984 0,68.039 34.168,119.962 66.145,145.867 17.718,14.354 36.294,22.199 52.511,22.438-4.113,13.893-8.749,26.111-13.864,36.341-1.853,3.705-0.351,8.21 3.354,10.062 1.077,0.539 2.221,0.793 3.348,0.793 2.751,0 5.4-1.52 6.714-4.147 5.857-11.714 11.112-25.853 15.705-41.99 1.907,0.263 3.847,0.403 5.821,0.402 11.656,0 24.433-4.578 37.684-13.6 20.221-13.768 39.242-36.316 53.558-63.493 15.717-29.836 24.024-61.882 24.024-92.674-5.68434e-14-12.962-1.774-59.415-24.601-112.941zm-154.812,247.154c-29.29-23.728-60.587-71.446-60.587-134.211 0-36.726 7.717-69.712 23.592-100.842 13.754-26.971 31.218-48.003 46.627-66.56 13.509-16.269 25.319-30.502 31.17-44.787 14.412,40.236 23.574,108.736 24.127,185.249 0.022,2.984 0.03,5.956 0.026,8.917-12.329-7.492-23.459-20.641-31.8-37.761-8.605-17.663-13.743-38.678-13.743-56.215 0-4.142-3.358-7.5-7.5-7.5s-7.5,3.358-7.5,7.5c0,19.998 5.561,42.882 15.257,62.785 14.353,29.461 32.444,42.382 45.122,48.035-0.344,19.246-1.233,37.904-2.633,55.753-38.064-13.601-71.098-67.445-74.871-87.931-0.75-4.074-4.663-6.765-8.735-6.017-4.073,0.75-6.768,4.661-6.017,8.735 2.754,14.952 15.13,38.003 30.796,57.359 17.963,22.195 38.167,37.325 57.482,43.183-1.439,14.761-3.24,28.89-5.381,42.249-22.712-3.335-57.888-30.268-68.492-58.766-1.445-3.882-5.762-5.859-9.645-4.414s-5.858,5.763-4.414,9.645c10.732,28.844 48.188,63.614 79.98,68.328-1.723,9.177-3.619,17.927-5.679,26.202-13.339,1.335-30.677-5.565-47.182-18.936zm93.389,9.556c-11.355,7.732-22.134,11.433-31.187,10.866 3.255-13.404 6.099-27.94 8.5-43.413 16.912-2.511 42.205-19.633 51.642-35.361 2.131-3.552 0.979-8.159-2.572-10.29-3.554-2.131-8.159-0.979-10.29,2.572-6.864,11.44-24.524,23.437-36.514,27.204 1.673-12.796 3.06-26.143 4.144-39.947 0.048-0.008 0.095-0.011 0.142-0.019 33.104-6.019 56.523-40.274 61.927-61.531 1.021-4.015-1.406-8.096-5.42-9.117-4.014-1.021-8.097,1.406-9.117,5.42-4.401,17.309-22.718,43.188-46.447,49.631 1.123-18.492 1.722-37.697 1.757-57.403 10.893-5.165 20.978-15.257 28.49-28.569 8.826-15.641 13.999-35.518 14.961-57.482 0.181-4.138-3.026-7.64-7.165-7.821-4.128-0.174-7.64,3.026-7.821,7.165-1.617,36.924-15.197,59.289-28.581,69.313-1.128-76.167-10.455-142.505-25.295-183.23 38.201,28.783 67.231,66.075 86.469,111.187 21.711,50.91 23.399,94.814 23.399,107.058 0.002,61.971-36.591,120.325-71.022,143.767z" class="active-path" data-old_color="#2bdc89" data-original="#000000"/></g></svg>