<svg xmlns="http://www.w3.org/2000/svg" xmlns:xlink="http://www.w3.org/1999/xlink" width="414" height="358" version="1.1" viewBox="0 0 414 358"><title>Shape</title><desc>Created with Sketch.</desc><g id="Page-1" fill="none" fill-rule="evenodd" stroke="none" stroke-width="1"><g id="element06" fill="#2ADC89" fill-rule="nonzero" transform="translate(-64.000000, -58.000000)"><path id="Shape" d="M429,309.5 C429,281.562 395.352,260.861 359.746,255.417 C364.731,251.968 369.592,247.897 374.27,243.219 C403.535,213.954 420.025,165.23 396.897,142.103 C381.058,126.265 353.212,129.01 327.833,141.714 C331.238,132.147 333,121.294 333,109.5 C333,68.114 310.207,22 277.5,22 C244.793,22 222,68.114 222,109.5 C222,121.293 223.762,132.146 227.167,141.713 C201.788,129.009 173.942,126.263 158.103,142.103 C147.265,152.941 144.352,170.336 149.901,191.084 C154.845,209.568 166.082,228.57 180.731,243.219 C185.408,247.896 190.27,251.968 195.255,255.417 C159.648,260.861 126,281.562 126,309.5 C126,336.663 157.805,356.985 192.293,363.096 C168.946,370.64 150,386.012 150,405.5 C150,433.493 189.087,453 224.167,453 C241.71,453 256.833,448.393 267.9,439.676 C268.622,439.107 269.321,438.522 270,437.924 L270,477.5 C270,481.642 273.358,485 277.5,485 C281.642,485 285,481.642 285,477.5 L285,437.924 C285.679,438.522 286.378,439.107 287.1,439.676 C298.167,448.392 313.29,453 330.833,453 C365.913,453 405,433.493 405,405.5 C405,386.012 386.054,370.64 362.707,363.096 C397.195,356.985 429,336.663 429,309.5 Z M412.491,302 L285.822,302 C290.183,282.238 311.848,269 341.5,269 C374.24,269 405.403,284.193 412.491,302 Z M285,274.057 L285,255.041 C288.93,258.859 293.351,261.931 298.15,264.206 C295.243,265.84 292.5,267.657 289.948,269.666 C288.185,271.055 286.542,272.525 285,274.057 Z M270,255.041 L270,274.057 C268.458,272.525 266.815,271.055 265.052,269.667 C262.5,267.657 259.757,265.84 256.849,264.206 C261.649,261.931 266.07,258.859 270,255.041 Z M270,344.943 L270,373.076 C269.321,372.478 268.622,371.893 267.9,371.324 C261.36,366.173 253.395,362.47 244.36,360.292 C252.137,357.682 259.102,354.019 265.052,349.334 C266.815,347.945 268.458,346.475 270,344.943 Z M285,344.943 C286.542,346.475 288.185,347.945 289.948,349.333 C295.898,354.019 302.863,357.681 310.64,360.291 C301.605,362.469 293.64,366.172 287.1,371.323 C286.378,371.892 285.679,372.477 285,373.075 L285,344.943 Z M363.663,232.613 C342.696,253.579 318.015,259.537 300.958,248.649 L390.527,159.08 C398.106,176.683 386.814,209.461 363.663,232.613 Z M379.912,148.481 L290.351,238.042 C286.732,232.374 284.963,225.87 285,218.934 L285,218.779 C285.127,204.879 292.439,189.285 306.387,175.337 C324.703,157.021 349.048,146.124 367.136,146.124 C371.91,146.124 376.236,146.899 379.912,148.481 Z M318,109.5 C318,139.152 304.762,160.817 285,165.178 L285,38.509 C302.807,45.597 318,76.76 318,109.5 Z M270,38.509 L270,165.178 C250.238,160.817 237,139.152 237,109.5 C237,76.76 252.193,45.597 270,38.509 Z M248.613,175.337 C262.561,189.285 269.873,204.879 270,218.779 L270,218.934 C270.037,225.87 268.267,232.374 264.649,238.042 L175.08,148.473 C192.684,140.895 225.461,152.186 248.613,175.337 Z M164.473,159.08 L254.042,248.649 C236.983,259.538 212.303,253.579 191.337,232.613 C168.186,209.461 156.894,176.683 164.473,159.08 Z M213.5,269 C243.152,269 264.817,282.238 269.178,302 L142.509,302 C149.597,284.193 180.76,269 213.5,269 Z M142.509,317 L269.178,317 C264.817,336.762 243.152,350 213.5,350 C180.76,350 149.597,334.807 142.509,317 Z M224.167,373 C247.464,373 264.684,382.965 268.959,398 L166.986,398 C174.047,384.521 198.906,373 224.167,373 Z M224.167,438 C198.907,438 174.047,426.479 166.987,413 L268.96,413 C264.683,428.035 247.463,438 224.167,438 Z M330.833,438 C307.536,438 290.316,428.035 286.041,413 L388.014,413 C380.953,426.479 356.094,438 330.833,438 Z M388.014,398 L286.041,398 C290.317,382.965 307.536,373 330.833,373 C356.094,373 380.953,384.521 388.014,398 Z M341.5,350 C311.848,350 290.183,336.762 285.822,317 L412.491,317 C405.403,334.807 374.24,350 341.5,350 Z" transform="translate(277.500000, 253.500000) rotate(123.000000) translate(-277.500000, -253.500000)"/></g></g></svg>