<svg xmlns="http://www.w3.org/2000/svg" xmlns:xlink="http://www.w3.org/1999/xlink" width="383" height="448" version="1.1" viewBox="0 0 383 448"><title>Shape</title><desc>Created with Sketch.</desc><g id="Page-1" fill="none" fill-rule="evenodd" stroke="none" stroke-width="1"><g id="element05" fill="#2ADC89" fill-rule="nonzero" transform="translate(-106.000000, -59.000000)"><path id="Shape" d="M462.855778,337.874 C458.585339,333.129 447.181627,322.093 434.107098,322.093 C427.119432,322.093 413.194754,326.469 389.269229,334.203 C364.58967,342.218 333.086281,352.499 307.667645,356.844 C338.379009,334.4 381.646703,312.313 415.244665,295.354 C445.639597,280.149 463.32628,271.218 471.049577,264.489 C475.847127,260.32 487.968739,247.577 496.555158,219.358 C498.794602,212.023 505.53513,187.303 497.962988,177.197 C490.332891,167.091 466.112285,168.572 458.87735,169.267 C431.07384,171.939 416.878661,181.924 412.081112,186.093 C404.358752,192.822 392.687308,209.75 372.924359,239.091 C350.932364,272.199 322.708601,315.42 296.979338,344.836 C308.653826,301.077 334.612422,244.863 354.755222,202.094 C370.688094,168.752 382.327642,144.662 384.348418,133.198 C386.826795,119.138 381.626168,100.306 370.320949,82.82 C366.064143,76.293 350.778494,55 334.632494,55 C318.486494,55 296.474235,76.293 290.155503,82.82 C273.326332,100.306 262.176543,119.138 260.213266,133.198 C258.612483,144.662 262.641828,168.752 268.043641,202.094 C274.67444,244.863 282.874773,301.076 280.726232,344.836 C264.28956,315.421 249.719791,272.199 238.186868,239.091 C227.692833,209.751 221.369077,192.823 215.77259,186.093 C212.29206,181.924 201.250253,171.939 174.291815,169.267 C167.277516,168.571 143.524657,167.091 132.701029,177.197 C121.936324,187.303 120.867715,212.022 120.789876,219.358 C120.461593,247.578 128.557696,260.32 132.038227,264.489 C137.634844,271.218 152.500157,280.149 178.092648,295.354 C206.332206,312.313 242.623373,334.4 266.244506,356.844 C242.197574,352.499 213.942163,342.217 191.795387,334.203 C170.313092,326.469 157.770826,322.093 150.783161,322.093 C137.708631,322.093 122.817643,333.129 117.049141,337.874 C111.248554,342.656 97.7025687,355.012 96.5820201,366.435 C95.6139537,378.023 106.430858,390.245 111.126952,394.996 C115.80253,399.741 127.98791,410.777 140.700034,410.777 C147.494012,410.777 160.723716,406.402 183.608071,398.668 C204.715951,391.567 231.256267,382.684 254.530236,377.729 C246.65453,382.271 238.585018,386.539 231.637843,390.22 C218.920023,396.98 212.144381,400.661 208.745738,403.943 C202.295054,410.188 199.365163,421.118 198.405545,425.527 C197.176141,431.184 195.709202,441.455 199.65667,446.688 C202.585188,450.585 208.383249,451.515 213.252371,451.515 C214.922645,451.515 216.485203,451.405 217.784183,451.268 C221.748211,450.851 231.668285,449.205 238.118216,442.959 C241.51686,439.677 245.823065,432.717 253.809487,419.671 C260.05534,409.526 267.762245,397.08 275.49533,386.442 L256.168403,510.5 C255.523123,514.642 257.909481,518 261.498267,518 C265.087053,518 268.534223,514.642 269.197426,510.5 L289.060999,386.443 C293.432573,397.081 297.207714,409.527 300.249598,419.672 C304.114876,432.717 306.222208,439.678 308.584047,442.96 C313.060828,449.206 322.461092,450.851 326.293211,451.269 C327.548912,451.406 329.075834,451.516 330.746993,451.516 C335.616113,451.516 341.708146,450.585 345.867567,446.689 C351.468169,441.456 353.245901,431.185 353.803577,425.528 C354.237683,421.119 354.75975,410.189 350.2819,403.944 C347.920061,400.662 342.308173,396.981 331.724979,390.221 C325.940656,386.54 319.218527,382.272 312.778574,377.73 C334.487048,382.686 358.221337,391.568 377.085963,398.669 C397.527094,406.403 409.374705,410.778 416.168681,410.778 C428.880802,410.778 444.553415,399.742 450.727065,394.997 C456.923812,390.247 471.601929,378.024 474.237204,366.666 C476.786498,355.012 467.14386,342.656 462.855778,337.874 Z M431.072719,337.093 C436.773702,337.093 444.817317,341.884 451.533123,349.299 C454.71537,352.828 456.93496,356.179 458.390454,359.001 L357.683892,359.001 C369.276814,355.487 380.56527,351.805 390.720029,348.5 C408.789036,342.634 425.913724,337.093 431.072719,337.093 Z M463.276664,253.882 C457.060232,259.297 434.80284,270.342 411.385951,282.036 C394.109215,290.713 374.323224,300.704 354.843212,311.468 L486.711079,195.424 C486.6451,200.479 485.635552,207.949 482.62618,217.943 C477.828915,233.913 470.412745,247.684 463.276664,253.882 Z M420.265255,196.699 C427.401145,190.502 441.573662,185.712 457.24531,184.199 C460.703252,183.866 463.824082,183.722 466.619286,183.722 C471.693597,183.722 475.688188,184.195 478.687758,184.856 L347.126881,300.624 C360.397334,281.804 373.124686,262.646 384.275031,245.992 C399.51489,223.427 414.048822,202.114 420.265255,196.699 Z M357.265287,92.379 C366.767888,107.038 371.495641,122.678 369.686786,133.198 C368.115042,142.339 355.272435,169.161 341.820143,197.557 C330.770626,221.116 317.979008,248.681 306.710912,276.223 L339.279688,72.817 C345.673243,77.175 352.92936,85.743 357.265287,92.379 Z M274.874898,133.198 C276.389385,122.678 286.057926,107.038 300.191259,92.38 C309.634871,82.644 318.21074,76.294 324.339802,72.926 L292.668159,276.223 C290.100777,248.681 286.017137,221.116 282.410076,197.557 C277.928281,169.161 273.558935,142.339 274.874898,133.198 Z M204.235887,196.7 C208.741681,202.115 216.542682,223.428 224.654094,245.993 C230.542379,262.647 237.218521,281.805 244.54267,300.625 L149.554689,184.857 C152.763072,184.196 156.906123,183.723 161.981395,183.723 C164.775636,183.723 167.853014,183.866 171.204681,184.2 C186.398357,185.713 199.057798,190.502 204.235887,196.7 Z M143.159145,253.882 C137.981999,247.684 134.915237,233.913 135.163004,217.943 C135.310909,207.948 136.661185,200.478 138.19201,195.424 L233.400787,311.468 C217.321196,300.704 200.69143,290.713 186.155817,282.036 C166.433143,270.342 147.664941,259.297 143.159145,253.882 Z M124.760827,349.298 C133.819087,341.883 143.376216,337.092 149.077201,337.092 C154.237115,337.092 169.611366,342.633 185.82635,348.499 C194.93691,351.805 205.062329,355.486 215.545291,358.999 L114.837754,358.999 C117.185442,356.179 120.463743,352.827 124.760827,349.298 Z M181.318675,384.369 C163.882308,390.235 147.470121,395.776 142.406196,395.776 C136.81027,395.776 128.464546,390.985 121.112614,383.57 C117.654547,380.096 115.126388,376.793 113.379332,374 L213.105253,374 C201.896582,377.473 191.049041,381.105 181.318675,384.369 Z M230.221496,432.353 C226.370747,436.078 214.324277,437.442 210.65544,435.95 C209.922605,431.594 212.968365,418.273 216.817191,414.549 C218.726356,412.728 228.267703,407.631 235.955408,403.536 C242.027739,400.308 248.617236,396.812 255.198823,393.11 C250.863537,399.797 246.719991,406.542 242.906155,412.77 C238.084482,420.672 232.110192,430.506 230.221496,432.353 Z M338.264738,435.95 C334.120831,437.443 322.508105,436.078 319.83589,432.353 C318.530848,430.505 315.662295,420.671 313.336918,412.769 C311.490551,406.541 309.477797,399.796 307.255883,393.109 C312.667815,396.812 318.1529,400.308 323.205654,403.535 C329.598648,407.631 337.529816,412.728 338.862996,414.548 C341.536102,418.273 340.372772,431.594 338.264738,435.95 Z M419.205233,395.776 C414.140407,395.776 399.47866,390.235 383.896307,384.369 C375.197062,381.105 365.496895,377.473 355.386277,374 L455.112199,374 C452.482602,376.794 448.910305,380.096 444.354777,383.57 C434.660395,390.985 424.801159,395.776 419.205233,395.776 Z" transform="translate(298.991746, 286.500000) rotate(-63.000000) translate(-298.991746, -286.500000)"/></g></g></svg>