<svg xmlns="http://www.w3.org/2000/svg" xmlns:xlink="http://www.w3.org/1999/xlink" width="512" height="512" enable-background="new 0 0 463.002 463.002" version="1.1" viewBox="0 0 463.002 463.002"><g><path fill="#2bdc89" d="m461.81,163.445c-2.24-3.485-6.881-4.495-10.364-2.253l-6.03,3.876c-72.254-8.454-134.98,13.247-158.959,23.146-1.95-30.529-10.596-116.06-47.456-167.167v-5.547c0-4.142-3.358-7.5-7.5-7.5s-7.5,3.358-7.5,7.5v5.547c-36.86,51.107-45.506,136.637-47.456,167.166-23.979-9.899-86.704-31.597-158.958-23.145l-6.03-3.876c-3.484-2.241-8.125-1.232-10.364,2.253-2.24,3.484-1.231,8.125 2.253,10.364l6.6,4.243c6.538,13.055 43.916,84.325 96.999,118.726-10.338,10.302-28.634,31.465-40.245,61.717l-5.671,1.89c-3.93,1.31-6.053,5.557-4.744,9.487 1.048,3.143 3.974,5.131 7.114,5.13 0.786,0 1.586-0.125 2.373-0.387l7.667-2.556c7.495,2.084 27.59,6.79 56.198,6.789 25.593-0.001 57.998-3.775 94.263-16.558v85.209c0,4.142 3.358,7.5 7.5,7.5s7.5-3.358 7.5-7.5v-85.209c36.269,12.785 68.669,16.558 94.263,16.558 28.604,0 48.702-4.706 56.198-6.789l7.667,2.556c0.787,0.262 1.586,0.387 2.373,0.387 3.14,0 6.066-1.988 7.114-5.13 1.31-3.93-0.814-8.177-4.744-9.487l-5.671-1.89c-11.611-30.252-29.906-51.415-40.245-61.717 53.084-34.4 90.462-105.671 96.999-118.726l6.6-4.243c3.487-2.239 4.496-6.879 2.256-10.364zm-196.86-28.372c6.23,35.574 7.046,64.337 7.054,64.624 0.067,2.558 1.434,4.905 3.625,6.227 2.191,1.321 4.905,1.436 7.198,0.301 0.689-0.34 64.054-31.142 141.774-27.774l-185.6,119.313v-247.605c11.182,22.263 20.022,51.077 25.949,84.914zm-84.774,71.151c2.294,1.134 5.008,1.021 7.199-0.301 2.191-1.322 3.557-3.67 3.624-6.228 0.007-0.284 0.808-28.859 7.016-64.403 5.927-33.933 14.781-62.822 25.987-85.133v247.605l-185.597-119.312c77.582-3.343 141.084,27.433 141.771,27.772zm-55.967,95.115c1.947-1.57 2.983-4.007 2.763-6.498-0.22-2.491-1.667-4.708-3.859-5.913-37.901-20.825-69.119-65.25-86.253-93.638l177.41,114.049-128.369,42.789c15.53-32.051 38.057-50.586 38.308-50.789zm-4.875,62.197c-5.983-0.256-11.455-0.72-16.366-1.285l121.033-40.344v24.429c-43.003,16.01-80.469,18.232-104.667,17.2zm224.333,0c-24.202,1.037-61.664-1.189-104.667-17.201v-24.429l121.033,40.344c-4.91,0.567-10.383,1.03-16.366,1.286zm-3.778-74.608c-2.188,1.203-3.63,3.419-3.854,5.906-0.223,2.487 0.81,4.926 2.749,6.499 0.258,0.209 22.787,18.745 38.316,50.796l-128.368-42.789 177.43-114.062c-17.116,28.376-48.319,72.796-86.273,93.65z" class="active-path" data-old_color="#2bdc89" data-original="#000000"/></g></svg>