<svg xmlns="http://www.w3.org/2000/svg" xmlns:xlink="http://www.w3.org/1999/xlink" width="429" height="317" version="1.1" viewBox="0 0 429 317"><title>Shape</title><desc>Created with Sketch.</desc><g id="Page-1" fill="none" fill-rule="evenodd" stroke="none" stroke-width="1"><g id="element02" fill="#2BDC89" fill-rule="nonzero" transform="translate(-47.000000, -46.000000)"><g id="Group" transform="translate(262.500000, 201.500000) rotate(90.000000) translate(-262.500000, -201.500000) translate(61.000000, -61.000000)"><path id="Shape" d="M291.332637,161.172181 C262.470031,121.69338 221.843185,82.837257 167.222071,42.4646112 L166.31581,37.5323974 C165.551458,33.3725054 160.952085,30 156.043238,30 C151.134391,30 147.774367,33.3725054 148.538719,37.5323974 L149.44498,42.4646112 C109.660076,82.8362527 83.3125097,121.69338 68.9578233,161.172181 C55.3748316,198.52986 52.4649876,236.866749 60.0568674,278.365238 C72.4856392,346.020227 111.90979,394.971771 142.799887,424.161317 C172.159523,451.903639 206.619874,472.995356 229.446698,477.864298 L231.21124,487.467603 C231.975591,491.627495 236.574964,495 241.483812,495 C246.392659,495 249.752682,491.627495 248.98833,487.467603 L247.223789,477.864298 C268.261344,472.995356 294.970777,451.903639 314.135488,424.161317 C334.298826,394.971771 355.733953,346.020227 343.340641,278.571123 C335.701183,236.994298 318.688691,198.592127 291.332637,161.172181 Z M280.980442,416.84284 C265.345268,423.398035 250.173714,429.76743 239.806329,437.49567 L232.749085,399.087473 C230.442928,386.53649 255.094287,376.128726 278.933755,366.06243 C295.64102,359.008089 313.683413,351.383294 327.139502,341.437516 C323.225857,368.499914 313.659272,390.416177 303.532598,406.994482 C296.254357,410.424233 288.50698,413.687268 280.980442,416.84284 Z M86.8391505,312.26906 C105.064133,324.710572 129.520288,333.661069 152.222188,341.958758 C179.760882,352.025054 208.236952,362.432819 210.54311,374.983801 L217.575994,413.259428 C204.402558,405.516123 186.956308,399.131663 168.980531,392.561404 C150.71635,385.885691 131.859559,378.984006 116.889563,370.544708 C105.289343,353.838855 94.6125366,334.399244 86.8391505,312.26906 Z M78.7843427,192.8896 C94.0920059,200.786566 111.577209,207.183078 128.601468,213.405842 C156.140162,223.472138 184.616232,233.879903 186.922389,246.430886 L193.955274,284.706512 C180.781838,276.963207 163.335588,270.578747 145.359811,264.008488 C117.41967,253.795562 88.5579294,243.243175 74.1549201,227.769622 C74.6777517,215.99297 76.2142506,204.386048 78.7843427,192.8896 Z M116.789923,149.129384 C144.329802,159.19568 172.805872,169.603445 175.112029,182.154428 L182.144914,220.430054 C168.971478,212.686749 151.525228,206.302289 133.549451,199.73203 C115.722299,193.216004 97.3654075,186.500119 82.6015471,178.357095 C86.2987316,166.125486 91.1882894,153.991296 97.3132668,141.879201 C103.826931,144.388996 110.390589,146.790324 116.789923,149.129384 Z M163.301669,117.87797 L170.334554,156.153596 C157.161118,148.410292 139.714868,142.025832 121.739091,135.455572 C115.990284,133.354536 110.111813,131.199266 104.30997,128.983737 C111.114253,117.221145 119.085346,105.45554 128.254548,93.6186285 C146.035352,100.740259 161.599317,108.613121 163.301669,117.87797 Z M233.529753,159.559244 C217.968456,166.129503 202.868223,172.512959 192.54053,180.257268 L185.507645,141.981641 C183.371262,130.354633 204.372292,120.565529 226.42854,111.185184 C239.075403,123.280205 250.457822,135.337063 260.637488,147.427063 C252.052037,151.727559 242.673826,155.699644 233.529753,159.559244 Z M245.340113,223.835702 C229.778816,230.405961 214.678583,236.789417 204.35089,244.533726 L197.318005,206.258099 C195.011848,193.707117 219.663206,183.299352 243.502675,173.233056 C252.831273,169.294114 262.400935,165.241685 271.365598,160.76041 C280.544641,172.725875 288.56958,184.750594 295.493812,196.905875 C283.690237,207.627991 264.230659,215.8604 245.340113,223.835702 Z M257.150473,288.11216 C241.589176,294.682419 226.488943,301.065875 216.16125,308.810184 L209.128365,270.534557 C206.822208,257.983575 231.473566,247.57581 255.313035,237.509514 C272.713053,230.161911 290.56452,222.607419 303.838261,212.694784 C309.210387,223.717192 313.710168,234.868153 317.38394,246.199892 C312.265615,264.829017 283.021299,277.188175 257.150473,288.11216 Z M180.73017,115.98081 L171.202162,64.1257775 C186.379331,75.8210799 200.353957,87.3958639 213.175405,98.9123974 C200.742549,104.255378 189.150653,109.666652 180.73017,115.98081 Z M158.511461,91.8078402 C152.184381,88.0818143 145.055752,84.7986933 137.795729,81.7937689 C142.711468,75.9295464 147.919432,70.0432289 153.424887,64.1247732 L158.511461,91.8078402 Z M198.732749,310.707343 L205.765634,348.98297 C192.592198,341.239665 175.145948,334.855205 157.170171,328.284946 C121.416784,315.216739 84.4579513,301.702613 77.8046168,278.205551 C75.9010247,267.761631 74.700622,257.500497 74.2068781,247.382981 C92.6297171,260.211156 117.667866,269.368542 140.411828,277.6823 C167.950338,287.747592 196.426592,298.156361 198.732749,310.707343 Z M325.56355,278.571123 C327.687016,290.127829 328.743934,301.098013 328.954663,311.4877 C328.881267,311.649395 328.807501,311.809082 328.747432,311.978812 C322.575547,329.750248 294.091451,341.776976 268.959648,352.388618 C253.398351,358.958877 238.298118,365.342333 227.971426,373.085637 L220.938725,334.811015 C218.632568,322.260032 243.283927,311.852268 267.123395,301.785972 C287.73271,293.083542 310.262697,283.559579 323.811003,269.903844 C324.442624,272.780216 325.030054,275.667635 325.56355,278.571123 Z M136.828469,395.938931 C145.770184,399.55649 154.970531,402.923974 164.031547,406.23622 C191.571242,416.301512 220.047312,426.709276 222.35347,439.260259 L226.542088,462.056307 C210.910257,457.110032 183.686324,441.887559 155.433903,415.191739 C149.474951,409.560518 143.174928,403.130864 136.828469,395.938931 Z M244.425755,462.017138 C244.117869,451.472786 262.94293,442.405788 283.341794,433.725454 C269.074334,449.059406 254.636749,458.333294 244.425755,462.017138 Z" transform="translate(201.474350, 262.500000) rotate(-15.000000) translate(-201.474350, -262.500000)"/></g></g></g></svg>