<svg xmlns="http://www.w3.org/2000/svg" xmlns:xlink="http://www.w3.org/1999/xlink" width="40" height="56" version="1.1" viewBox="0 0 40 56"><title>Shape</title><desc>Created with Sketch.</desc><g id="Page-1" fill="none" fill-rule="evenodd" stroke="none" stroke-width="1"><g id="element07" fill="#2ADC89" fill-rule="nonzero" transform="translate(0.000000, -1.000000)"><path id="Shape" d="M39.79,33.67 C39.7360453,32.6156644 38.8449697,31.8003302 37.79,31.84 L23.15,32.61 C22.7283247,32.6432434 22.3154447,32.4769281 22.0345516,32.1606778 C21.7536585,31.8444275 21.6372281,31.4148059 21.72,31 L22.42,27.81 C22.5511573,27.206272 23.0727712,26.7668021 23.69,26.74 L36.09,26.19 C36.7795226,26.1596324 37.4004669,25.7637157 37.7189291,25.1513879 C38.0373913,24.53906 38.0049895,23.8033481 37.6339291,23.2213878 C37.2628687,22.6394275 36.6095226,22.2996324 35.92,22.33 L25.28,22.81 C24.8577589,22.8291397 24.4506204,22.6508716 24.1783002,22.3276138 C23.90598,22.004356 23.7994373,21.5728587 23.89,21.16 L24.6,17.94 C24.7311573,17.336272 25.2527712,16.8968021 25.87,16.87 L33.79,16.54 C34.8559096,16.4958172 35.6841828,15.5959096 35.64,14.53 C35.5958172,13.4640904 34.6959096,12.6358172 33.63,12.68 L27.45,12.94 C27.0307605,12.95195 26.6291446,12.7712064 26.3600701,12.4494868 C26.0909956,12.1277673 25.9841109,11.7005212 26.07,11.29 L27.84,3.29 C27.9882652,2.61655436 27.765989,1.91516638 27.2569005,1.45004211 C26.7478121,0.984917849 26.0292542,0.826720742 25.3719005,1.03504211 C24.7145469,1.24336349 24.2182652,1.78655436 24.07,2.46 L22.3,10.46 C22.2109762,10.8847731 21.9259485,11.2422416 21.5316621,11.4236133 C21.1373757,11.604985 20.6804701,11.5888059 20.3,11.38 L14.8,8.55 C13.8506732,8.09374354 12.7108536,8.48287038 12.2387228,9.42440301 C11.7665919,10.3659356 12.1365269,11.5121278 13.07,12 L20.07,15.63 C20.6196567,15.9109285 20.9111746,16.5268113 20.78,17.13 L20.11,20.3 C20.0222844,20.7254263 19.7366284,21.08336 19.3412558,21.2632545 C18.9458832,21.443149 18.4883635,21.4233603 18.11,21.21 L8.7,16.3 C8.08728951,15.9820336 7.35148863,16.0150977 6.76976643,16.3867374 C6.18804423,16.758377 5.84877815,17.4121314 5.87976643,18.1017374 C5.91075472,18.7913434 6.30728951,19.4120336 6.92,19.73 L17.92,25.44 C18.4657841,25.7240852 18.7528472,26.3392203 18.62,26.94 L17.92,30.13 C17.8187474,30.5272871 17.542441,30.8570345 17.1690032,31.0262485 C16.7955654,31.1954625 16.3654663,31.1858052 16,31 L3,24.19 C2.05559308,23.6901824 0.884817756,24.0505931 0.385000072,24.995 C-0.114817612,25.9394069 0.245593127,27.1101823 1.19,27.61 L15.75,35.32 C16.2903301,35.6036283 16.573202,36.2144675 16.44,36.81 L15.72,40.06 C15.6322844,40.4854263 15.3466284,40.84336 14.9512558,41.0232545 C14.5558832,41.203149 14.0983635,41.1833603 13.72,40.97 L4.26,36.06 C3.31283165,35.5684666 2.14653343,35.9378317 1.655,36.885 C1.16346657,37.8321683 1.53283165,38.9984666 2.48,39.49 L13.48,45.21 C14.0215717,45.4930089 14.3078981,46.102475 14.18,46.7 L12.49,54.35 C12.3417348,55.0234456 12.564011,55.7248336 13.0730995,56.1899579 C13.5821879,56.6550822 14.3007458,56.8132793 14.9580995,56.6049579 C15.6154531,56.3966365 16.1117348,55.8534456 16.26,55.18 L17.7,48.62 L17.94,47.52 C18.0740877,46.9236738 18.5895238,46.490053 19.2,46.46 L31.6,45.9 C32.6659096,45.8530558 33.4919442,44.9509096 33.445,43.885 C33.3980558,42.8190904 32.4959096,41.9930558 31.43,42.04 L20.79,42.52 C20.3693116,42.5361656 19.964254,42.3594132 19.69,42.04 C19.4194245,41.7188444 19.3123889,41.2907022 19.4,40.88 L20.12,37.63 C20.2499881,37.0352318 20.7619856,36.6010579 21.37,36.57 L38,35.7 C39.0506417,35.6251508 39.8472382,34.7217481 39.79,33.67 Z"/></g></g></svg>