<svg width="280" height="198" viewBox="0 0 280 198" xmlns="http://www.w3.org/2000/svg" xmlns:xlink="http://www.w3.org/1999/xlink"><defs><linearGradient x1="111.927%" y1="127.382%" x2="35.499%" y2="20.834%" id="linearGradient-1"><stop stop-color="#70DDC6" offset="0%"/><stop stop-color="#00A1B1" offset="100%"/></linearGradient><path id="path-2" d="M0 0h280v198.23H0z"/><linearGradient x1="41.331%" y1="12.339%" x2="88.609%" y2="60.493%" id="linearGradient-4"><stop stop-color="#82FFD5" offset="0%"/><stop stop-color="#00E8FF" offset="100%"/></linearGradient><linearGradient x1="10.973%" y1="-16.095%" x2="64.859%" y2="59.278%" id="linearGradient-5"><stop stop-color="#82FFD5" offset="0%"/><stop stop-color="#29B8C6" offset="100%"/></linearGradient><path d="M.617 3.694c.6.28 1.136.02 1.575.492.438.471 1.644 1.16 2.972.75.916-.281 1.925-2.378 2.356-3.266.208-.43.73-.858 1.566-1.284l-.78 7.715c1.908 2.288 2.955 3.907 3.14 4.859.226 1.166-2.278.093-5.597-2.765-.876-.753-1.98-1.278-3.312-1.574l-2.285.421c.76-.978 1.147-1.705 1.163-2.182.033-.998-.68-2.975-.798-3.166z" id="path-6"/><path id="path-8" d="M6.572 7.47L.287 4.06v-.08L6.572.33z"/><path id="path-10" d="M0 3.785L6.244.182v7.091L0 10.876z"/><radialGradient cx="77.589%" cy="-14.91%" fx="77.589%" fy="-14.91%" r="41.952%" id="radialGradient-12"><stop stop-color="#7EEDC8" offset="0%"/><stop stop-color="#00A1B1" offset="100%"/></radialGradient><radialGradient cx="77.589%" cy="-14.91%" fx="77.589%" fy="-14.91%" r="42.027%" gradientTransform="matrix(.36497 .9291 -.91694 .36981 .356 -.815)" id="radialGradient-13"><stop stop-color="#7EEDC8" offset="0%"/><stop stop-color="#00A1B1" offset="100%"/></radialGradient><linearGradient x1="10.973%" y1="-16.095%" x2="117.383%" y2="144.932%" id="linearGradient-14"><stop stop-color="#E1FFF5" offset="0%"/><stop stop-color="#5FC19F" offset="100%"/></linearGradient><linearGradient x1="10.973%" y1="-16.095%" x2="117.383%" y2="144.932%" id="linearGradient-15"><stop stop-color="#F5FFFC" offset="0%"/><stop stop-color="#7DDBBA" offset="100%"/></linearGradient><linearGradient x1="-146.008%" y1="66.855%" x2="140.723%" y2="66.855%" id="linearGradient-16"><stop stop-color="#C1EAA5" offset="0%"/><stop stop-color="#639B46" offset="100%"/></linearGradient><linearGradient x1="36.172%" y1="-107.361%" x2="39.761%" y2="139.648%" id="linearGradient-17"><stop stop-color="#C1EAA5" offset="0%"/><stop stop-color="#5E9145" offset="100%"/></linearGradient><linearGradient x1="-303.552%" y1="65.007%" x2="140.723%" y2="66.855%" id="linearGradient-18"><stop stop-color="#C1EAA5" offset="0%"/><stop stop-color="#79B65B" offset="100%"/></linearGradient><linearGradient x1="36.172%" y1="-107.361%" x2="39.761%" y2="139.648%" id="linearGradient-19"><stop stop-color="#C1EAA5" offset="0%"/><stop stop-color="#79B65B" offset="100%"/></linearGradient><path d="M.331 17.247a1.029 1.029 0 0 1-.131-.769c.55-2.487.824-4.504.824-6.051 0-1.26-.057-2.786-.171-4.574A3.383 3.383 0 0 1 2.936 2.52c1.26-.526 2.047-.836 2.364-.93.393-.117 2.167-.527 5.323-1.231a1.77 1.77 0 0 1 2.115 1.324c.028.126.043.255.043.385v1.72c0 .312-.016.624-.047.935L11.439 17.5a.774.774 0 0 1-.076.266v.017c-.03.575-2.525.913-5.572.755-2.984-.155-5.39-.728-5.46-1.291z" id="path-20"/><path d="M.331 17.247a1.029 1.029 0 0 1-.131-.769c.55-2.487.824-4.504.824-6.051 0-1.26-.057-2.786-.171-4.574A3.383 3.383 0 0 1 2.936 2.52c1.26-.526 2.047-.836 2.364-.93.393-.117 2.167-.527 5.323-1.231a1.77 1.77 0 0 1 2.115 1.324c.028.126.043.255.043.385v1.72c0 .312-.016.624-.047.935L11.439 17.5a.774.774 0 0 1-.076.266v.017c-.03.575-2.525.913-5.572.755-2.984-.155-5.39-.728-5.46-1.291z" id="path-22"/><path id="path-24" d="M.052.743l1.26-.701v.783l-1.26.7z"/><path id="path-26" d="M.052.743l1.26-.701v.783l-1.26.7z"/><path id="path-28" d="M.052.743l1.26-.701v.783l-1.26.7z"/><path id="path-30" d="M.052.743l1.26-.701v.783l-1.26.7z"/><path id="path-32" d="M2.184 7.967l11.47-6.925L11.59.027.191 6.577z"/><linearGradient x1="50%" y1="81.655%" x2="50%" y2="6.498%" id="linearGradient-34"><stop stop-color="red" offset="0%"/><stop stop-color="#03A3B1" offset="100%"/></linearGradient><linearGradient x1="10.747%" y1="29.745%" x2="77.556%" y2="80.363%" id="linearGradient-35"><stop stop-color="#CFA19D" offset="0%"/><stop stop-color="#BD817E" offset="100%"/></linearGradient><linearGradient x1="12.828%" y1="23.92%" x2="83.32%" y2="100%" id="linearGradient-36"><stop stop-color="#D0A9A6" offset="0%"/><stop stop-color="#BD817E" offset="100%"/></linearGradient><linearGradient x1="0%" y1="0%" x2="77.431%" y2="100%" id="linearGradient-37"><stop stop-color="#D0A9A6" offset="0%"/><stop stop-color="#AB7672" offset="100%"/></linearGradient><linearGradient x1="33.637%" y1="-25.472%" x2="57.37%" y2="297.013%" id="linearGradient-38"><stop stop-color="#D4ABA8" offset="0%"/><stop stop-color="#744442" offset="100%"/></linearGradient><path d="M20.668 17.943c12.59 6.802 24.004 10.192 25.496 7.573 1.492-2.62-7.505-10.257-20.094-17.058C13.48 1.656 2.066-1.734.574.885c-1.492 2.62 7.505 10.257 20.094 17.058z" id="path-39"/><path d="M20.668 17.943c12.59 6.802 24.004 10.192 25.496 7.573 1.492-2.62-7.505-10.257-20.094-17.058C13.48 1.656 2.066-1.734.574.885c-1.492 2.62 7.505 10.257 20.094 17.058z" id="path-41"/><path d="M20.668 17.943c12.59 6.802 24.004 10.192 25.496 7.573 1.492-2.62-7.505-10.257-20.094-17.058C13.48 1.656 2.066-1.734.574.885c-1.492 2.62 7.505 10.257 20.094 17.058z" id="path-43"/><path d="M20.668 17.943c12.59 6.802 24.004 10.192 25.496 7.573 1.492-2.62-7.505-10.257-20.094-17.058C13.48 1.656 2.066-1.734.574.885c-1.492 2.62 7.505 10.257 20.094 17.058z" id="path-45"/><path d="M20.668 17.943c12.59 6.802 24.004 10.192 25.496 7.573 1.492-2.62-7.505-10.257-20.094-17.058C13.48 1.656 2.066-1.734.574.885c-1.492 2.62 7.505 10.257 20.094 17.058z" id="path-47"/><path d="M20.668 17.943c12.59 6.802 24.004 10.192 25.496 7.573 1.492-2.62-7.505-10.257-20.094-17.058C13.48 1.656 2.066-1.734.574.885c-1.492 2.62 7.505 10.257 20.094 17.058z" id="path-49"/><path d="M20.668 17.943c12.59 6.802 24.004 10.192 25.496 7.573 1.492-2.62-7.505-10.257-20.094-17.058C13.48 1.656 2.066-1.734.574.885c-1.492 2.62 7.505 10.257 20.094 17.058z" id="path-51"/><path d="M.523 23.96A2.433 2.433 0 0 1 0 22.457V15.21a4.83 4.83 0 0 1 2.453-4.204L20.538.784a1.207 1.207 0 0 1 1.802 1.05v9.318a4.83 4.83 0 0 1-2.453 4.205L4.093 24.284l-.788 3.61-2.782-2.18V23.96z" id="path-53"/><linearGradient x1="64.489%" y1="12.557%" x2="64.489%" y2="60.506%" id="linearGradient-55"><stop stop-color="#FFA598" offset="0%"/><stop stop-color="#E99084" offset="100%"/></linearGradient><linearGradient x1="24.138%" y1="-10.206%" x2="24.138%" y2="142.884%" id="linearGradient-56"><stop stop-color="#F59689" offset="0%"/><stop stop-color="#E47D6F" offset="100%"/></linearGradient><path d="M1.4 11.94L0 11.52V7.63l4.078-.484.17 1.18L17.275.45 58.73 23.883 42.176 33.29a4.83 4.83 0 0 1-4.768.002L2.572 13.543A2.41 2.41 0 0 1 1.4 11.94z" id="path-57"/><path d="M1.4 11.94L0 11.52V7.63l4.078-.484.17 1.18L17.275.45 58.73 23.883 42.176 33.29a4.83 4.83 0 0 1-4.768.002L2.572 13.543A2.41 2.41 0 0 1 1.4 11.94z" id="path-59"/><path d="M16.677.414l43.053 13.91-14.983 12.762a4.83 4.83 0 0 1-4.67.9L2.081 15.217a2.415 2.415 0 0 1-.852-4.079L11.95 1.43A4.83 4.83 0 0 1 16.677.414z" id="path-61"/><path d="M2.487 6.332L.22 2.316 3.933.442l.172 1.223a2.776 2.776 0 0 1 2.87-.127l40.06 21.74a4.83 4.83 0 0 1 2.465 5.008l-2.024 12.65-43.34-24.625a4.83 4.83 0 0 1-2.392-4.899l.743-5.08z" id="path-63"/><path d="M2.487 6.332L.22 2.316 3.933.442l.172 1.223a2.776 2.776 0 0 1 2.87-.127l40.06 21.74a4.83 4.83 0 0 1 2.465 5.008l-2.024 12.65-43.34-24.625a4.83 4.83 0 0 1-2.392-4.899l.743-5.08z" id="path-65"/><path d="M2.487 6.332L.22 2.316 3.933.442l.172 1.223a2.776 2.776 0 0 1 2.87-.127l40.06 21.74a4.83 4.83 0 0 1 2.465 5.008l-2.024 12.65-43.34-24.625a4.83 4.83 0 0 1-2.392-4.899l.743-5.08z" id="path-67"/><linearGradient x1="57.194%" y1="9.271%" x2="57.194%" y2="54.454%" id="linearGradient-69"><stop stop-color="#FFA79B" offset="0%"/><stop stop-color="#E47D6F" offset="100%"/></linearGradient><path d="M2.487 6.332L.22 2.316 3.933.442l.172 1.223a2.776 2.776 0 0 1 2.87-.127l40.06 21.74a4.83 4.83 0 0 1 2.465 5.008l-2.024 12.65-43.34-24.625a4.83 4.83 0 0 1-2.392-4.899l.743-5.08z" id="path-70"/><linearGradient x1="57.707%" y1="10.456%" x2="31.892%" y2="86.208%" id="linearGradient-72"><stop stop-color="#FFA598" offset="0%"/><stop stop-color="#E47D6F" offset="100%"/></linearGradient><path d="M5.858.46l39.915 21.543a4.83 4.83 0 0 1 2.497 4.863l-1.584 12.375-43.599-24.01a4.83 4.83 0 0 1-2.45-4.93l1.14-7.792A2.787 2.787 0 0 1 5.859.46h-.001z" id="path-73"/><path d="M22.34 6.194v4.813a4.83 4.83 0 0 1-2.453 4.205L4.605 23.849l-.768 3.519-3.2-1.786.203-1.438A2.41 2.41 0 0 1 0 22.313v-7.248a4.83 4.83 0 0 1 2.453-4.205l16.284-9.204a2.412 2.412 0 0 1 2.237-.073l.938-1.008 2.873 1.698-2.326 4.059-.119-.138z" id="path-75"/><linearGradient x1="64.489%" y1="-8.858%" x2="64.489%" y2="77.512%" id="linearGradient-77"><stop stop-color="#FFA598" offset="0%"/><stop stop-color="#E99084" offset="100%"/></linearGradient><path id="path-78" d="M.028.44l.68-.415v.464l-.68.415z"/><path id="path-80" d="M.028.44l.68-.415v.464l-.68.415z"/><path id="path-82" d="M.028.44l.68-.415v.464l-.68.415z"/><path id="path-84" d="M1.18 4.718L7.376.617 6.26.016.103 3.895z"/></defs><g id="RYU" stroke="none" stroke-width="1" fill="none" fill-rule="evenodd"><g id="a-link" fill="url(#linearGradient-1)" fill-rule="nonzero"><path id="a" d="M0 0h280v198.23H0z"/></g><g id="ryu"><g id="Clipped"><mask id="mask-3" fill="#fff"><use xlink:href="#path-2"/></mask><g id="Group" mask="url(#mask-3)"><g transform="translate(-76 10)"><path id="Shape" fill="url(#linearGradient-4)" fill-rule="nonzero" opacity=".4" d="M.673 107.786l94.911-54.167v63.242L.673 171.644z"/><path d="M81.09 89.577l-12 7.042V77.027l12-6.857v19.407zm0 23.675l-12 7.042v-19.592l12-6.858v19.408z" id="Shape" fill="url(#linearGradient-5)" fill-rule="nonzero" opacity=".8"/><path d="M152.64 98.665l131.416 76.06c5.381 3.114 7.219 10.002 4.104 15.383a11.259 11.259 0 0 1-4.115 4.11l-118.294 68.299a22.517 22.517 0 0 1-22.538-.012l-131.415-76.06c-5.382-3.114-7.22-10.002-4.105-15.384a11.259 11.259 0 0 1 4.115-4.11l118.294-68.297a22.517 22.517 0 0 1 22.539.012l-.001-.001z" id="Shape" fill="#CFCFDA" fill-rule="nonzero"/><path d="M152.64 96.047l131.416 76.06c5.381 3.114 7.219 10.002 4.104 15.383a11.259 11.259 0 0 1-4.115 4.11l-118.294 68.299a22.517 22.517 0 0 1-22.538-.012l-131.415-76.06c-5.382-3.114-7.22-10.002-4.105-15.384a11.259 11.259 0 0 1 4.115-4.11l118.294-68.297a22.517 22.517 0 0 1 22.539.012l-.001-.001z" id="Shape" fill="#F6F6F8" fill-rule="nonzero"/><path d="M225.42 151.26l48.693 28.012a1.952 1.952 0 0 1 .008 3.378l-16.937 9.862a4.879 4.879 0 0 1-4.91 0l-46.635-27.154a1.952 1.952 0 0 1-.023-3.36l17.825-10.72a1.952 1.952 0 0 1 1.979-.019v.001zm-22.321 11.969v.548l.59.2-.296-.632-.294-.116zm73.611 17.256v.393l-.141.04-.222-.26.363-.173z" id="Shape" fill="#E9D3C0" fill-rule="nonzero"/><path d="M225.42 150.762l48.693 28.013a1.952 1.952 0 0 1 .008 3.378l-16.937 9.862a4.879 4.879 0 0 1-4.91 0L205.64 164.86a1.952 1.952 0 0 1-.023-3.359l17.825-10.72a1.952 1.952 0 0 1 1.979-.019h-.001z" id="Shape" fill="#FEE7D3" fill-rule="nonzero"/><path d="M247.246 154.683c-3.132-3.031-4.946-4.547-5.442-4.547-.51 0-1.122 1.961-2.604 4.136-.614.902-1.794 2.007-2.145 2.761-.781 1.683-.226 2.723 1.665 3.12.5 1.658.748 2.684.748 3.078 0 .167-.387 1.75-1.35 1.986-.877.215-3.696.073-8.457-.426 9.57 5.104 14.853 7.29 15.851 6.557.551-.404 8.715 5.215 8.968 3.925.137-.698-2.491-3.657-7.884-8.876-.39-1.086-.586-1.976-.586-2.67 0-.693.09-2.74.27-6.142.38-.44.766-.876 1.158-1.306.302-.33.238-.862-.192-1.596z" id="Shape" fill="#FFE299" fill-rule="nonzero"/><path d="M227.214 161.822c5.489 3.627 9.448 6.007 11.88 7.14 2.413 1.126 7.041 2.523 13.885 4.191a2.928 2.928 0 0 1 1.967 4.069 3.159 3.159 0 0 1-4.527 1.37c-5.35-3.298-8.71-5.296-10.078-5.997-.488-.25-.822-.31-1.237-.503-1.135-.53-2.779-1.18-4.748-1.93-1.399-.533-4.544-1.65-9.435-3.352a2.836 2.836 0 0 1-1.638-3.877 2.697 2.697 0 0 1 3.931-1.11v-.001z" id="Shape" fill="#FFC977" fill-rule="nonzero"/><path d="M253.876 173.246c-.822-.073.34.115-.682 0-1.666-.188-5.451-.69-11.357-1.507l-3.64-1.075-2.386-1.35c-3.75-3.418-6.568-5.846-8.453-7.282 4.332 2.631 13.814 8.426 26.518 11.214z" id="Shape" fill="#F1BE71" fill-rule="nonzero"/><path d="M241.583 152.43c-.795.733-1.5 1.558-2.101 2.457-.839 1.275-1.454 3.188.78 3.568 2.234.38 4.076-1.28 4.99-2.333.912-1.053 1.429-1.545.912-2.218-.344-.448-1.938-1.356-4.782-2.724l.2 1.25h.001z" id="Shape" fill="#FFC3D0" fill-rule="nonzero"/><path d="M241.087 151.512h2.648v2.336a1.324 1.324 0 1 1-2.648 0v-2.336z" id="Shape" fill="#FFB5C2" fill-rule="nonzero"/><path d="M241.505 144.248l-2.08 1.336c-.22 1.846-.22 3.403 0 4.67.333 1.902.876 3.138 2.782 2.345 1.271-.528 2.66-1.693 4.169-3.494-.343-2.495-.738-3.964-1.184-4.41-.447-.445-1.676-.594-3.687-.447z" id="Shape" fill="#FFC3D0" fill-rule="nonzero"/><path d="M246.045 145.73l-2.337 1.923c-.604.393-1.08.27-1.428-.368-.522-.957-2.22-2.543-2.747-.817-.266.87-.398 2.084 0 3.867.085.38.313 1.037.683 1.968-.573 1.311-1.072 1.553-1.495.725-.635-1.243-.62-3.183-.62-4.28 0-1.095.62-1.543.62-2.28 0-.738-.316-1.363 2.692-2.716 2.005-.902 3.549-.243 4.632 1.978z" id="Shape" fill="#8787FC" fill-rule="nonzero"/><path d="M245.337 144.71c.988-.117 1.641.35 1.959 1.402.318 1.051.318 3.96 0 8.727-2.186-1.44-3.37-2.26-3.55-2.46-.27-.3-.312-.81-.108-1.61.135-.533.41-.932.823-1.195.907-.628 1.199-1.184.876-1.667-.323-.483-.785-.363-1.385.36-.976.146-1.273-.41-.89-1.669.384-1.259 1.142-1.888 2.275-1.888z" id="Shape" fill="#8787FC" fill-rule="nonzero"/><g id="Group" stroke-width="1" fill="none" fill-rule="evenodd" transform="translate(237.808 156.32)"><g id="f-link" fill="#FFC977" fill-rule="nonzero"><path d="M.617 3.694c.6.28 1.136.02 1.575.492.438.471 1.644 1.16 2.972.75.916-.281 1.925-2.378 2.356-3.266.208-.43.73-.858 1.566-1.284l-.78 7.715c1.908 2.288 2.955 3.907 3.14 4.859.226 1.166-2.278.093-5.597-2.765-.876-.753-1.98-1.278-3.312-1.574l-2.285.421c.76-.978 1.147-1.705 1.163-2.182.033-.998-.68-2.975-.798-3.166z" id="f"/></g><g id="Clipped"><mask id="mask-7" fill="#fff"><use xlink:href="#path-6"/></mask><path d="M7.522 1.64C8.187-.598 8.36.865 8.706-.154c.432.966-.043.68 0 .648l.828 5.894c1.274 2.972 1.911 5.163 1.911 6.572 0 .915-1.683.393-2.403-1.103-.719-1.496-1.52-3.29-1.52-3.854 0-.564.261-5.38 0-6.363z" id="Shape" fill="#F1BE71" fill-rule="nonzero" mask="url(#mask-7)"/></g></g><path d="M239.727 149l-.47 1.357a.47.47 0 0 0 .442.623h.43l-.402-1.98z" id="Shape" fill="#FFB5C2" fill-rule="nonzero"/><path d="M238.988 152.014c-2.355 1.345-4.08 5.55-6.253 6.586-2.173 1.035-4.517 2.647-5.55 2.69-1.034.044-3.01.502-3.625.918-.614.417-.948 1.625 1.521.46.23-.108-1.157.952-.717.987.374.03 2.588-1.344 2.883-1.404.585-.12 1.46-.309 2.624-.568 3.326-.964 5.309-1.887 5.948-2.767.96-1.32 2.507-3.462 3.225-4.179.719-.716 2.906-4.19-.056-2.723zm9.316 3.966c1.357 2.787.048 7.765 1.446 10.149 1.398 2.384 2.553 5.407 3.539 6.132.986.724 2.604 2.45 2.91 3.237.308.787-.228 2.11-1.825-.587-.149-.251.459 1.634 0 1.374-.39-.22-1.586-2.94-1.834-3.19-.49-.496-1.215-1.248-2.176-2.256-2.584-3.084-3.876-5.239-3.876-6.465 0-1.84.009-4.819-.186-5.948-.194-1.13.136-5.746 2.002-2.446z" id="Shape" fill="#FFC3D0" fill-rule="nonzero"/><path d="M241.636 173.244c-.39-.048-.755-.388-1.438-.647-.46-.53-1.26-.866-2.398-1.007-.53-.092-.874-.488-1.031-1.187-.158-.7.073-1.147.694-1.345a2.274 2.274 0 0 1 1.615.541l1.756 1.5c.978.428 1.586.7 1.822.817-1.22-.005-.898 1.343-1.02 1.328z" id="Shape" fill="#FFB5C2" fill-rule="nonzero"/><path d="M235.12 168.66c.419.103.96.43 1.725.8.456.628 1.303 1.074 2.54 1.34.575.152.915.62 1.021 1.404.107.784-.19 1.255-.893 1.413a2.511 2.511 0 0 1-1.724-.75l-1.787-1.82a71.719 71.719 0 0 0-1.63-.888c.155-.867.645-1.525.748-1.5v.001z" id="Shape" fill="#FFC3D0" fill-rule="nonzero"/><g id="Group" stroke-width="1" fill="none" fill-rule="evenodd" transform="translate(95 68)"><path id="Shape" fill="#E2E6EB" fill-rule="nonzero" d="M6.908 20.263l28.3-16.303v32.322L6.908 52.72z"/><path d="M7.567 20.774l6.317-3.61v7.107l-6.317 3.611v-7.108zm6.843-3.921l6.319-3.612v7.108l-6.318 3.612-.001-7.108zm6.977-4.053l6.318-3.611v7.108l-6.318 3.611V12.8zm6.976-4.052l6.318-3.611v7.108l-6.318 3.61V8.748z" id="Shape" fill="#CFCED8" fill-rule="nonzero"/><path d="M13.884 24.27l-6.317-3.365v-.08l6.317-3.662v7.107zm6.845-3.93l-6.318-3.356v-.081l6.318-3.662v7.099zm6.976-4.06l-6.318-3.349v-.08l6.318-3.662v7.091zm6.975-4.063l-6.317-3.338v-.138l6.318-3.604-.001 7.08z" id="Shape" fill="#C1C1CC" fill-rule="nonzero"/><path d="M7.567 28.456l6.244-3.603v7.092l-6.244 3.602v-7.091zm6.928-3.904l6.244-3.603v7.092l-6.244 3.602v-7.091zm6.928-4.074l6.244-3.603v7.092l-6.244 3.602v-7.091zm6.928-3.988l6.244-3.604v7.092l-6.244 3.602v-7.09z" id="Shape" fill="#CFCED8" fill-rule="nonzero"/><path id="Shape" fill="#C1C1CC" fill-rule="nonzero" d="M13.852 31.966l-6.285-3.41v-.08l6.285-3.623z"/><g id="h-link" transform="translate(14.146 20.595)" fill="#C1C1CC" fill-rule="nonzero"><path id="h" d="M6.634 7.458L.349 4.056v-.08L6.634.356z"/></g><path d="M27.708 23.947l-6.285-3.37v-.08l6.285-3.622v7.072zm6.928-4.022l-6.285-3.337v-.08l6.285-3.622v7.039z" id="Shape" fill="#C1C1CC" fill-rule="nonzero"/><g transform="translate(7 20)"><path d="M.435 16.3l6.244-3.603v7.091L.435 23.391V16.3zm6.928-3.905l6.244-3.602v7.09l-6.244 3.604v-7.092zm6.928-4.074l6.244-3.602.067 7.1-6.31 3.594-.001-7.092zm6.929-3.989L27.463.73v7.091l-6.243 3.603V4.332z" id="Shape" fill="#CFCED8" fill-rule="nonzero"/><path d="M6.72 19.809l-6.285-3.41v-.08l6.285-3.622v7.112zm6.928-3.904l-6.285-3.41v-.08l6.285-3.622v7.112z" id="Shape" fill="#C1C1CC" fill-rule="nonzero"/><g transform="translate(14.005 4.362)"><g id="i-link" fill="#C1C1CC" fill-rule="nonzero"><path id="i" d="M6.572 7.47L.287 4.06v-.08L6.572.33z"/></g><g id="Clipped"><mask id="mask-9" fill="#fff"><use xlink:href="#path-8"/></mask><path d="M6.16.974L5.572.725l-.541.372L0 3.768l-.22 1.164c1.129-.252 1.725-.378 1.788-.378.064 0 1.595-1.193 4.592-3.58z" id="Shape" fill="#494763" fill-rule="nonzero" mask="url(#mask-9)"/></g></g><path id="Shape" fill="#C1C1CC" fill-rule="nonzero" d="M27.505 7.842l-6.285-3.41v-.08L27.505.73z"/></g><g transform="translate(7 17)"><path id="Shape" fill="#F6F6F8" fill-rule="nonzero" d="M12.282 5.549l.699-.093.374-.516-.841-.285-.964.57z"/><g transform="translate(.435 23.358)"><g id="k-link" fill="#CFCED8" fill-rule="nonzero"><path id="k" d="M0 3.785L6.244.182v7.091L0 10.876z"/></g><g id="Clipped"><mask id="mask-11" fill="#fff"><use xlink:href="#path-10"/></mask><path d="M5.884.817L5.282.59 4.62 1-.411 3.67l.273 1.02c.8-.156 1.231-.234 1.295-.234.064 0 1.64-1.213 4.727-3.639z" id="Shape" fill="#494763" fill-rule="nonzero" mask="url(#mask-11)"/></g></g><path d="M6.318 24.173v6.301l-5.883 3.36v-6.276l5.883-3.385zM20.168 8.33v6.363l-5.883 3.298v-6.276l5.883-3.385z" id="Shape" fill="#6D6B8F" fill-rule="nonzero"/><path id="Shape" fill="#FFA598" fill-rule="nonzero" d="M13.332 11.133l-.56.34v-6.19l.575-.359z"/><path id="Shape" fill="#F08F81" fill-rule="nonzero" d="M8.641 9.347l4.13 2.127V5.283l-.864-.277-3.266 1.893z"/><path id="Shape" fill="#F6F6F8" fill-rule="nonzero" d="M4.88 1.88l.699-.093.374-.515-.841-.286-.964.57z"/><path id="Shape" fill="#FFA598" fill-rule="nonzero" d="M5.93 7.464l-.56.34v-6.19l.576-.359z"/><path id="Shape" fill="#F08F81" fill-rule="nonzero" d="M1.24 5.678l4.13 2.127V1.614l-.865-.277L1.24 3.23z"/><path id="Shape" fill="#F6F6F8" fill-rule="nonzero" d="M11.036 6.315l.699-.093.228-.396-.927-.316-.785.46z"/><path id="Shape" fill="#6D6B8F" fill-rule="nonzero" d="M11.95 11.64l-.412.241-.015-5.785.428-.26z"/><path id="Shape" fill="#494763" fill-rule="nonzero" d="M7.468 10.185l4.07 1.696V6.093l-.963-.315-3.107 1.793z"/><path d="M7.363 23.239l6.244-3.603v7.091L7.363 30.33v-7.091zm6.928-4.074l6.244-3.603v7.091l-6.244 3.603v-7.091zm6.929-3.989l6.243-3.603v7.091l-6.243 3.603v-7.091z" id="Shape" fill="#CFCED8" fill-rule="nonzero"/><path d="M13.648 26.748l-6.285-3.41v-.08l6.285-3.622v7.112zm6.928-4.074l-6.285-3.41v-.08l6.285-3.622v7.112zm6.929-3.989l-6.285-3.41v-.08l6.285-3.622v7.112z" id="Shape" fill="#C1C1CC" fill-rule="nonzero"/><path id="Shape" fill="#494763" fill-rule="nonzero" d="M14.29 11.378v.346l.433-.261v-.198z"/><g fill-rule="nonzero" id="Shape"><path d="M11.227 9.36l-.494-.253-5.367 3.114v1.76c1.173-.407 1.787-.61 1.843-.61.056 0 1.395-1.337 4.018-4.012v.001z" fill="#494763" transform="translate(2 11)"/><path fill="#6D6B8F" d="M11.24 9.357v6.214l-5.866 3.392v-6.278z" transform="translate(2 11)"/><path d="M7.352 13.47l1.85-1.112.023.402-1.85 1.112-.023-.402zM.71 17.212l2.115-1.271v.416L.71 17.627v-.415zM14.28 1.313l2.115-1.27v.415l-2.115 1.27v-.415z" fill="#494763" transform="translate(2 11)"/></g></g><path d="M.327 16.425L28.647.169l6.56 3.804L6.914 20.3c-2.334-.15-4.01-.526-5.027-1.124C.87 18.576.35 17.66.327 16.425z" id="Shape" fill="#F7F7F9" fill-rule="nonzero"/><path id="Shape" fill="#DAD9E5" fill-rule="nonzero" d="M.327 16.51l6.581 3.748V52.72l-6.58-3.75z"/></g><g id="Group" stroke-width="1" fill="none" fill-rule="evenodd" transform="translate(135.469 .407)"><circle id="Oval" fill="#FFF" fill-rule="nonzero" cx="9.03" cy="10.146" r="1"/><g opacity=".7" fill-rule="nonzero" id="n-link"><g fill="#000"><ellipse id="n" cx="24.12" cy="23.51" rx="23.822" ry="23.51"/></g><g fill="url(#radialGradient-13)"><ellipse id="n" cx="24.12" cy="23.51" rx="23.822" ry="23.51"/></g></g><ellipse id="Oval" fill="url(#linearGradient-14)" fill-rule="nonzero" cx="23.957" cy="23.671" rx="3.916" ry="3.865"/><ellipse id="Oval" fill="url(#linearGradient-15)" fill-rule="nonzero" cx="23.957" cy="23.671" rx="3.263" ry="3.221"/><ellipse id="Oval" fill="#FFF" fill-rule="nonzero" cx="23.876" cy="23.751" rx="2.04" ry="2.013"/><path id="Shape" fill="#FFF" fill-rule="nonzero" opacity=".3" d="M23.305 22.165h1.142v113.002h-1.142z"/><path d="M25.446 27.37c4.165 3.223 7.613 5.06 8.291 4.279.841-.968-2.888-5.586-8.328-10.315-5.44-4.73-10.533-7.78-11.374-6.812-.716.823 1.88 4.293 6.026 8.226" id="Shape" stroke="#FFF" stroke-width=".965" opacity=".7" stroke-linecap="round"/><path d="M19.886 23.76c-3.45 1.465-5.741 2.94-5.495 3.656.322.935 4.848.225 10.108-1.586 5.26-1.811 9.264-4.038 8.942-4.973-.24-.696-2.804-.481-6.267.42" id="Shape" stroke="#FFF" stroke-width=".965" opacity=".7" stroke-linecap="round"/><path id="Shape" fill="#FFF" fill-rule="nonzero" opacity=".2" d="M20.387 23.671h6.977v115.584h-6.977z"/></g><g id="Group" stroke-width="1" fill="none" fill-rule="evenodd" transform="translate(190.973 13.788)"><path d="M71.384 39.718L8.388 76.345a5.404 5.404 0 0 0 .014 9.352l56.531 32.639a10.808 10.808 0 0 0 10.837-.017l62.996-36.627a5.404 5.404 0 0 0-.014-9.352l-56.53-32.638a10.808 10.808 0 0 0-10.838.016z" id="Shape" fill="#CFCFDA" fill-rule="nonzero"/><path d="M71.384 38.415L8.388 75.042a5.404 5.404 0 0 0 .014 9.352l56.531 32.639a10.808 10.808 0 0 0 10.837-.017l62.996-36.627a5.404 5.404 0 0 0-.014-9.352l-56.53-32.638a10.808 10.808 0 0 0-10.838.016z" id="Shape" fill="#F6F6F8" fill-rule="nonzero"/><path d="M13.074 129.864L.18 137.104l12.894-7.24z" id="Shape" fill="#FFF" fill-rule="nonzero"/><path id="Shape" fill="#DEDEE7" fill-rule="nonzero" d="M34.913 60.224l7.948 4.413 21.497-12.561-8.793-4.103z"/><path d="M43.508 55.582l.978.208-1.68 7.903-.978-.208 1.68-7.903zm16.388-10.604l-.978.207 1.68 7.904.978-.208-1.68-7.903z" id="Shape" fill="#3F3E4F" fill-rule="nonzero"/><path d="M43.189 53.407c4.91-.363 10.533-6.003 12.754-12.908.906-2.817 1.11-5.424.717-7.548a6.84 6.84 0 0 1 .607-.027c5.054 0 7.278 5.823 4.967 13.007-2.31 7.184-8.281 13.007-13.335 13.007-3.096 0-5.13-2.186-5.71-5.531z" id="Shape" fill="#47465A" fill-rule="nonzero"/><path d="M59.538 33.292c3.54 1.451 4.84 6.583 2.86 12.69-2.346 7.235-8.406 13.1-13.536 13.1-1.373 0-2.54-.42-3.468-1.173l-6.585-3.724c-2.415-2.121-3.101-6.606-1.419-11.796 2.346-7.235 8.406-13.1 13.536-13.1 1.069 0 2.013.255 2.817.724.16.092 5.663 3.225 5.795 3.28v-.001zM49.087 58.454c4.91 0 10.712-5.615 12.958-12.541 2.245-6.927.084-12.542-4.827-12.542S46.505 38.986 44.26 45.913c-2.246 6.926-.085 12.541 4.827 12.541z" id="Shape" fill="#6F6CA3" fill-rule="nonzero"/><path d="M44.725 57.6a54.895 54.895 0 0 1-1.743-.804c-2.457-2.128-3.155-6.629-1.443-11.836 2.385-7.26 8.55-13.146 13.767-13.146 1.088 0 2.049.255 2.866.726l1.536.863a6.302 6.302 0 0 0-1.216-.114c-5.218 0-11.382 5.885-13.767 13.145-1.443 4.391-1.174 8.279.419 10.666.296.445 1.273 1.444-.42.5h.001z" id="Shape" fill="#585665" fill-rule="nonzero"/><path id="Shape" fill="#3F3E4F" fill-rule="nonzero" d="M38.805 52.547l.978.208-1.575 7.41-.978-.209z"/><g transform="translate(9.776 41.841)" fill-rule="nonzero"><path id="Shape" fill="url(#linearGradient-16)" d="M7.259 9.702h1.58V37.19h-1.58z"/><path d="M8.05 9.815c.436 0 .79-.057.79-.127s-.354-.127-.79-.127c-.438 0-.792.057-.792.127s.354.127.791.127h.001z" id="Shape" fill="#D59F9F"/><g transform="translate(7.06 16.024)" fill="url(#linearGradient-17)" id="Rectangle-path"><rect y="14.545" width="1.977" height="1" rx=".5"/><rect y="8.703" width="1.977" height="1" rx=".5"/><rect y="2.861" width="1.977" height="1" rx=".5"/><rect width="1.977" height="1" rx=".5"/><rect y="20.972" width="1.977" height="1" rx=".5"/></g><path d="M.177 35.97s2.33-2.133 3.407-2.02c1.078.113 3.745.849 4.437.922.692.072 2.256.749 3.2.106.943-.642 2.773-.48 3.373-.095.6.385 3.036 2.4 1.239 2.733-1.798.333-13.868.125-14.963-.52-1.095-.644-.693-1.125-.693-1.125v-.001z" id="Shape" fill="#81B465"/><path d="M7.755 14.732h1.581V37.19c-.252.1-.52.152-.79.154-.26 0-.524-.051-.791-.154V14.732z" id="Shape" fill="url(#linearGradient-18)"/><path id="Shape" fill="url(#linearGradient-16)" d="M9.337 5.206h1.58V37.19h-1.58z"/><path d="M10.127 5.32c.437 0 .79-.058.79-.127 0-.07-.353-.127-.79-.127-.437 0-.79.057-.79.127s.353.126.79.126v.001z" id="Shape" fill="#D59F9F"/><g transform="translate(9.138 10.71)" fill="url(#linearGradient-17)" id="Rectangle-path"><rect y="19.858" width="1.977" height="1" rx=".5"/><rect y="14.016" width="1.977" height="1" rx=".5"/><rect y="8.174" width="1.977" height="1" rx=".5"/><rect width="1.977" height="1" rx=".5"/><rect y="26.285" width="1.977" height="1" rx=".5"/></g><path id="Shape" fill="url(#linearGradient-18)" d="M10.918.129h1.581V37.19h-1.581z"/><rect id="Rectangle-path" fill="url(#linearGradient-19)" x="10.72" y="24.337" width="1.977" height="1" rx=".5"/><rect id="Rectangle-path" fill="url(#linearGradient-19)" x="10.72" y="18.495" width="1.977" height="1" rx=".5"/><rect id="Rectangle-path" fill="url(#linearGradient-19)" x="10.72" y="12.653" width="1.977" height="1" rx=".5"/><rect id="Rectangle-path" fill="url(#linearGradient-19)" x="10.72" y="6.114" width="1.977" height="1" rx=".5"/><rect id="Rectangle-path" fill="url(#linearGradient-19)" x="10.72" y="30.569" width="1.977" height="1" rx=".5"/><rect id="Rectangle-path" fill="url(#linearGradient-19)" x="10.72" y="36.801" width="1.977" height="1" rx=".5"/><rect id="Rectangle-path" fill="url(#linearGradient-19)" x="7.557" y="29.011" width="1.977" height="1" rx=".5"/><path d="M6.624 37.435c-.736-.75.334-1.128.652-.798.226.235.712.235 1.456 0 .778-.226 1.37-.283 1.776-.17.61.17 1.662 0 2.12 0 .306 0 .538.208.697.622a.64.64 0 0 1-.076.417c-.74.281-1.91.463-3.227.463-1.425 0-2.677-.213-3.398-.534z" id="Shape" fill="#936461"/><rect id="Rectangle-path" fill="url(#linearGradient-19)" x="7.557" y="23.169" width="1.977" height="1" rx=".5"/><rect id="Rectangle-path" fill="url(#linearGradient-19)" x="7.557" y="17.326" width="1.977" height="1" rx=".5"/><rect id="Rectangle-path" fill="url(#linearGradient-19)" x="7.557" y="35.048" width="1.977" height="1" rx=".5"/><path d="M11.709.253c.436 0 .79-.057.79-.126 0-.07-.354-.127-.79-.127-.437 0-.791.057-.791.127s.354.126.79.126h.001zm-3.164 14.6c.437 0 .791-.056.791-.126s-.354-.127-.79-.127c-.437 0-.791.057-.791.127s.354.126.79.126z" id="Shape" fill="#E9AFAF"/><path d="M11.906 14.85c1.045-1.728 1.97-2.74 2.773-3.039.803-.298 1.573-.472 2.308-.521-.624.726-1.31 1.232-2.06 1.52-.75.286-1.757.966-3.02 2.04h-.001zm-1.839 9.542c-1.045-1.727-1.97-2.74-2.773-3.038-.803-.299-1.572-.473-2.307-.522.623.726 1.31 1.233 2.06 1.52.75.287 1.756.967 3.02 2.04zm1.984-.609c.476-1.228.898-1.948 1.264-2.16.366-.212.717-.336 1.052-.371-.284.516-.597.876-.939 1.08-.342.204-.8.688-1.377 1.451zm-.415-17.165c.476-1.228.897-1.948 1.263-2.16.367-.212.717-.336 1.052-.371-.284.516-.597.877-.939 1.08-.341.205-.8.688-1.376 1.451zm.238 2.452c-.477-1.228-.898-1.948-1.264-2.16-.366-.212-.717-.336-1.052-.371.284.516.597.877.939 1.08.342.205.8.688 1.377 1.452V9.07zm-.363 20.33c.476-1.228.897-1.948 1.264-2.16.366-.212.717-.336 1.052-.371-.284.516-.597.877-.94 1.08-.341.205-.8.688-1.376 1.451zm-3.615-2.531c-.477-1.229-.898-1.949-1.264-2.16-.366-.213-.717-.337-1.052-.372.284.517.597.877.939 1.081.342.204.8.688 1.377 1.45v.001zm.394 6.426c-.475-1.228-.897-1.948-1.263-2.16-.366-.212-.717-.336-1.052-.371.284.516.597.876.94 1.08.341.205.8.688 1.376 1.451H8.29z" id="Shape" fill="#95CA77"/></g><g fill-rule="nonzero" id="Shape"><path d="M7.522 5.632c-1.997 0-4.34 0-4.34-1.254 0-1.253 2.343-1.616 4.34-1.616 1.997 0 3.615.924 3.615 1.616 0 .693-1.618 1.254-3.615 1.254z" fill="#756E88" transform="translate(25 61)"/><path d="M7.288 3.022c1.372 0 2.485-.428 2.485-.956 0-.529-1.113-1.234-2.485-1.234-1.373 0-2.983.277-2.983 1.234 0 .956 1.61.956 2.983.956z" fill="#9D95AE" transform="translate(25 61)"/><path d="M4.317 1.923c.153.817 1.669.817 2.97.817 1.251 0 2.286-.356 2.46-.819a.45.45 0 0 1 .026.145c0 .528-1.113.956-2.485.956-1.373 0-2.983 0-2.983-.956 0-.05.004-.097.012-.143z" fill="#7E7692" transform="translate(25 61)"/><path d="M7.39 9.726c-3.014 0-6.55 0-6.55-1.85s3.536-2.385 6.55-2.385c3.013 0 5.455 1.364 5.455 2.385 0 1.022-2.442 1.85-5.456 1.85h.001z" fill="#9E97AE" transform="translate(25 61)"/><path d="M.926 7.384c.559 1.385 3.727 1.385 6.463 1.385 2.552 0 4.694-.594 5.291-1.396.1.143.158.312.165.487 0 1.022-2.442 1.85-5.456 1.85-3.013 0-6.55 0-6.55-1.85 0-.17.03-.328.087-.476z" fill="#7E7692" transform="translate(25 61)"/><path d="M3.333 4.867c1.276.198 2.94.14 4.47.087 1.259-.044 2.413-.23 3.327-.504-.105.66-1.681 1.183-3.61 1.183-1.693 0-3.637 0-4.187-.766z" fill="#645D78" transform="translate(25 61)"/></g><path d="M49.063 54.59c-1.72-1.536-4.475-6.521-1.975-7.81 2.501-1.288 1.975 1.16 1.975-1.676 0-2.837 4.926-5.21 4.926-2.605s-.952 5.358 0 3.689c.953-1.67 2.612-1.67 2.612.592s-1.338 5.211-2.612 6.51c-1.273 1.3-3.206 2.836-4.926 1.3z" id="Shape" fill="#118189" fill-rule="nonzero"/><g transform="rotate(-6 404.791 -533.05)"><g fill="#FFBEC6" fill-rule="nonzero" id="Shape"><path d="M4.003 6.27l-.924-3.222a.326.326 0 0 0-.403-.223.352.352 0 0 0-.248.41c.145.703.273 1.25.385 1.639.111.388.29.916.539 1.583.064.173.25.267.428.216a.326.326 0 0 0 .223-.402V6.27z" transform="translate(20 26)"/><path d="M3.841 5.23L2.68 1.896A1.388 1.388 0 0 0 1.469.968a.807.807 0 0 0-.864.848c.048.92.084 1.427.106 1.52.016.07.046.41.088 1.021a2.406 2.406 0 0 0 1.874 2.184 1.004 1.004 0 0 0 1.168-1.31V5.23z" transform="translate(20 26)"/><path d="M4.317 4.05a70.33 70.33 0 0 0-.939-1.185c-.268-.323-.44-.588-.52-.796-.141-.377-.26-.432-.357-.165a.9.9 0 0 1-.2.322l-.081.084a.36.36 0 0 0-.007.492L3.67 4.401c.14.154.368.194.552.095a.298.298 0 0 0 .095-.446z" transform="translate(20 26)"/></g><g fill="#FFBEC6" fill-rule="nonzero" id="Shape"><path d="M3.528 6.48c-.132-.427-.234-1.89-.307-4.39A1.345 1.345 0 0 0 2.339.866a.807.807 0 0 0-1.064.577c-.207.898-.313 1.395-.317 1.491-.009.187-.001 2.332.39 2.914.092.137.226.343.452.517.048.037.23.21.515.21.026 0 .232.142.642 0 .155.163.514.271.571-.095z" transform="translate(1 28)"/><path d="M4.366 4.487c-.433-1.056-.765-1.783-.995-2.18-.182-.315-.3-.422-.354-.323l.04.022a.854.854 0 1 1-.074.188l-.293.169a.337.337 0 0 0-.123.46l1.061 1.834a.49.49 0 0 0 .525.233.297.297 0 0 0 .213-.403z" transform="translate(1 28)"/></g><g transform="translate(.191 51.013)" fill-rule="nonzero"><ellipse id="Oval" fill="#E6E8ED" opacity=".8" transform="rotate(2 11.324 5.41)" cx="11.324" cy="5.41" rx="10.871" ry="3.264"/><path d="M11.83 3.41c.577.34 2.237 1.275 2.777 1.773.54.499 1.697.806 2.213.568.517-.238.932-.783.202-1.681-.73-.899-2.415-1.539-2.415-2.02 0-.115-1.719.247-1.782.462-.042.144-.373-.22-.994-1.09-.385 1.099-.385 1.762 0 1.988h-.001z" id="Shape" fill="#54517F"/><path d="M11.83 3.15c.577.34 2.237 1.275 2.777 1.773s1.697.806 2.213.568c.517-.239.932-.783.202-1.682-.73-.898-2.415-1.538-2.415-2.02 0-.1-.221-.363-.221-.743 0-.168.074-.473.22-.917l-2.343.54-.432.493c-.385 1.098-.385 1.761 0 1.988h-.001z" id="Shape" fill="#C39293"/><path d="M5.764 4.144c0 1.254-.231 3.617 1.718 3.27 1.948-.348.75-3.66.75-4.504 0-.563.127-1.226.384-1.99h-2.35c-.335 1.314-.502 2.389-.502 3.224z" id="Shape" fill="#54517F"/><path d="M5.764 3.884c0 1.254-.231 3.616 1.718 3.269 1.948-.348.75-3.66.75-4.503 0-.563.127-1.227.384-1.991h-2.35c-.335 1.314-.502 2.39-.502 3.225z" id="Shape" fill="#C39293"/></g><g fill="#5D5A8F" fill-rule="nonzero" id="Shape"><path d="M1.683 2.15C1.118 3.345.836 4.423.836 5.384c0 .961.282 1.715.847 2.26v9.41L.209 29.046h2.334c2.05-8.29 3.075-12.772 3.075-13.448 0-.676.345-3.327 1.033-7.953h.88v7.953l-1.268 12.34h2.366l2.475-11.725c.485-5.197.728-8.71.728-10.537V.828L1.682 2.15h.001z" transform="translate(6 24)"/><path d="M7.443 28.453c.654 0 1.184-.233 1.184-.521 0-.288-.53-.52-1.184-.52-.623 0-1.102.218-1.148.487-.002.014-.036.02-.036.033 0 .288.53.52 1.184.52v.001zm-6.05 1.049c.654 0 1.184-.233 1.184-.52 0-.289-.53-.268-1.184-.268-.5 0-.847.03-1.02.224-.053.06-.06.046-.06.114 0 .03-.098-.011-.087.018.096.245.582.432 1.167.432z" transform="translate(6 24)"/></g><path d="M7.123 53.228c-.46-.047-.816-.212-.897-.419-.007-.019.478-4.024 1.457-12.016v-9.409c-.565-.546-.847-1.3-.847-2.26 0-.961.282-2.04.847-3.234l10.149-1.323v.137L8.735 25.89c-.565 1.195-.847 2.273-.847 3.234 0 .96.282 1.714.847 2.26v9.41c-1.06 8.29-1.598 12.435-1.612 12.434zm6.689-13.936v-6.793c.054-.372-.06-.759 0-1.16h1.052v7.953c-.92 8.564-1.416 12.842-1.49 12.832-.483-.066-.835-.264-.835-.498l1.273-12.334z" id="Shape" fill="#54517F" fill-rule="nonzero"/><path d="M11.228 13.232L6.205 23.531l-2.6-1.268 4.018-7.936a2.608 2.608 0 0 1 3.605-1.095zm6.396-3.447l1.232 11.594 2.808-.003-.845-8.985a2.894 2.894 0 0 0-3.195-2.606z" id="Shape" fill="#D8D8D8" fill-rule="nonzero"/><path d="M6.362 22.45l-1.757 7.548-2.597-.416 1.209-6.755a1.656 1.656 0 0 1 3.145-.376v-.001zM20.491 15l-1.702 6.112 1.734 7.393 2.572-.432L20.491 15z" id="Shape" fill="#D8D8D8" fill-rule="nonzero"/><path d="M12.582 28.473c2.453.129 4.487-.083 5.227-.463.179-.092.088-.424.094-.536.03-.574-2.22-1.138-5.267-1.298-3.047-.16-5.541.177-5.571.751-.006.099-.022.363.11.46.632.471 2.883.954 5.407 1.086z" id="Shape" fill="#9F535C" fill-rule="nonzero"/><g transform="translate(6.724 9.459)"><g id="v-link" fill="#D8D8D8" fill-rule="nonzero"><path d="M.331 17.247a1.029 1.029 0 0 1-.131-.769c.55-2.487.824-4.504.824-6.051 0-1.26-.057-2.786-.171-4.574A3.383 3.383 0 0 1 2.936 2.52c1.26-.526 2.047-.836 2.364-.93.393-.117 2.167-.527 5.323-1.231a1.77 1.77 0 0 1 2.115 1.324c.028.126.043.255.043.385v1.72c0 .312-.016.624-.047.935L11.439 17.5a.774.774 0 0 1-.076.266v.017c-.03.575-2.525.913-5.572.755-2.984-.155-5.39-.728-5.46-1.291z" id="v"/></g><g id="Clipped"><mask id="mask-21" fill="#fff"><use xlink:href="#path-20"/></mask><path d="M2.554 7.568c-.524 4.537-.786 7.349-.786 8.435 0 1.63 6.814 2.85 9.56 1.642 1.83-.806 2.089.017.777 2.469l-13.213-1.18c.743-3.796 1.457-6.425 2.142-7.886.684-1.462 1.191-2.622 1.52-3.48z" id="Shape" fill="#CACACA" fill-rule="nonzero" mask="url(#mask-21)"/></g><g id="Clipped"><mask id="mask-23" fill="#fff"><use xlink:href="#path-22"/></mask><path d="M8.192 3.074c.04 2.187.04 3.773 0 4.757-.254 6.161-.79 9.63-1.289 10.808" id="Shape" stroke="#E2E2E2" stroke-width="1.201" mask="url(#mask-23)"/></g></g><path d="M15.999 11.933c-.023.142-.555.246-1.206.235-.664-.012-1.2-.14-1.198-.285 0-.006.001-.01.003-.016l.133-4.044 2.367.041-.096 4.07h-.003v-.001z" id="Shape" fill="#FFABB6" fill-rule="nonzero"/><path d="M16.533 12.363c-.02.168-.902.398-1.667.425-.781.027-1.742-.077-1.748-.25l.237-1.33 1.373.297c.052.284.18 1.02.195 1.02.016 0 .11-.733.133-1.02l1.248-.299.229 1.157z" id="Shape" fill="#FFF" fill-rule="nonzero"/><path d="M15.829 9.326c.665-.129 1.933-.494 2.034-1.357.189-1.614.263-2.14.179-3.397-.148-2.205-.099-3.337-1.364-3.311-.273.005-1.274-.5-2.469-.267-.773.15-2.474.471-2.354 1.458.018.148-.036 3.633-.007 3.782.447 2.301 2.435 3.393 3.981 3.092z" id="Shape" fill="#FFBEC6" fill-rule="nonzero"/><path d="M15.54 9.37c.894.082 2.222-.538 2.323-1.4.189-1.615.263-2.141.179-3.398-.148-2.205-.099-3.337-1.364-3.311-.273.005-1.274-.5-2.469-.267-.772.15-2.474.471-2.354 1.458.018.148-.036 3.633-.007 3.782.447 2.301 2.099 2.992 3.692 3.137V9.37z" id="Shape" fill="#FFBEC6" fill-rule="nonzero"/><path d="M14.764 4.042c.376.333.071.688 0 .846-.047.106-.265.308-.653.608v1.41c.077.538.207.853.39.948 1.589.534 2.738.355 3.447-.536l-.098.789c-.093.276-.23.48-.412.615-.773.571-1.214.601-1.355.625-.141.025-.932.075-1.49-.054-.598-.225-.96-.225-.96-.84V6.5c-.113-.356-.286-.414-.517-.174-.347.36-.424 1.878-.742 1.319-.207-.405-.445-.87-.526-1.422-.018-.295-.018-.74 0-1.336l.817-1.134c1.037-.13 1.737-.033 2.099.288v.001z" id="Shape" fill="#8A465F" fill-rule="nonzero" opacity=".2"/><path d="M16.157 3.352c.046.106-.046.31-.276.612-.456.6-2.436.705-3.232.705-.796 0-.665 1.015-.796 1.015-.13 0-1.062-2.135-.942-2.332.12-.196.417-.46.517-.32 0-.59-.422-1.232 1.733-1.931 2.156-.7 4.821-1.002 5.363.194.361.797-.428 1.483-2.367 2.057z" id="Shape" fill="#89445E" fill-rule="nonzero"/><path d="M18.053 4.79l.39 1.123a.6.6 0 0 1-.567.797h-.092l.269-1.92z" id="Shape" fill="#E8A6B1" fill-rule="nonzero"/><ellipse id="Oval" fill="#D8D8D8" fill-rule="nonzero" transform="rotate(9 3.341 29.736)" cx="3.341" cy="29.736" rx="1.315" ry="1"/><ellipse id="Oval" fill="#D8D8D8" fill-rule="nonzero" transform="rotate(-9 21.754 28.434)" cx="21.754" cy="28.434" rx="1.315" ry="1"/></g><path d="M95.432 89.074v-5.391h21.397v5.292c.013.055.02.11.02.166 0 1.533-4.795 2.776-10.71 2.776-5.915 0-10.71-1.243-10.71-2.776l.003-.067z" id="Shape" fill="#D7D9E1" fill-rule="nonzero"/><ellipse id="Oval" fill="#FFF" fill-rule="nonzero" cx="106.139" cy="83.557" rx="10.71" ry="2.664"/><g transform="translate(73)"><g transform="translate(21 16)"><path id="Shape" fill="#FFDBB5" fill-rule="nonzero" d="M11.956 17.61l12.375-9.764-12.375-6.409L.607 7.847z"/><path id="Shape" fill="#EBBE8F" fill-rule="nonzero" d="M12.437 14.6l11.92-6.816v12.885l-11.92 6.816z"/><path id="Shape" fill="#FFF" fill-rule="nonzero" d="M13.497 14.978l3.86-2.194v5.197l-3.86 2.194z"/><path id="Shape" stroke="#979797" stroke-width=".965" fill="#FFF" fill-rule="nonzero" d="M14.358 15.554v3.066l2.138-1.215V14.34l-2.138 1.215z"/><animateTransform xmlns="http://www.w3.org/2000/svg" attributeName="transform" type="translate" from="15 -15" to="15 10" dur="4.5s" repeatCount="indefinite" values="20 -15; 20 10; 20 -15"/><g id="Clipped"><g transform="translate(14.273 17.208)"><mask id="mask-25" fill="#fff"><use xlink:href="#path-24"/></mask><path id="Shape" fill="#000" fill-rule="nonzero" mask="url(#mask-25)" d="M0 .577h1v1.154H0z"/></g><g transform="translate(14.273 17.208)"><mask id="mask-27" fill="#fff"><use xlink:href="#path-26"/></mask><path d="M.388.385h.097v1.154H.388V.385zM.582.192h.097v1.154H.582V.192zm.194 0h.16v1.154h-.16V.192zM.97 0h.114v1.154H.97V0zm.194-.192h.16V.962h-.16V-.192z" id="Shape" fill="#000" fill-rule="nonzero" mask="url(#mask-27)"/></g></g><g id="Clipped"><g transform="translate(15.63 16.438)"><mask id="mask-29" fill="#fff"><use xlink:href="#path-28"/></mask><path id="Shape" fill="#000" fill-rule="nonzero" mask="url(#mask-29)" d="M0 .577h1v1.154H0z"/></g><g transform="translate(15.63 16.438)"><mask id="mask-31" fill="#fff"><use xlink:href="#path-30"/></mask><path d="M.388.385h.097v1.154H.388V.385zM.582.192h.097v1.154H.582V.192zm.194 0h.16v1.154h-.16V.192z" id="Shape" fill="#000" fill-rule="nonzero" mask="url(#mask-31)"/></g></g><path id="Shape" fill="#59BEFF" fill-rule="nonzero" d="M14.288 15.424l1.148-.63v1.436l-1.148.63z"/><g transform="translate(5.546 4.13)"><g id="B-link" opacity=".536" fill="#FFBC78" fill-rule="nonzero"><path id="B" d="M2.184 7.967l11.47-6.925L11.59.027.191 6.577z"/></g><g id="Clipped"><mask id="mask-33" fill="#fff"><use xlink:href="#path-32"/></mask><path d="M13.284.096l-12.8 7.5" id="Shape" stroke="#E5AB70" stroke-width=".965" mask="url(#mask-33)"/></g></g><path id="Shape" fill="#ECEFF0" fill-rule="nonzero" d="M15.137 14.951l1.437-.79v1.437l-1.622.904z"/><path id="Shape" fill="#D5A879" fill-rule="nonzero" d="M12.527 14.6L.607 7.784v12.885l11.92 6.816z"/><path id="Shape" fill="#F4B06A" fill-rule="nonzero" opacity=".536" d="M7.873 11.935L5.8 10.757l-.005 4.27.47-.284.594.703.556-.172.46.934z"/><path id="Shape" fill="#B12A00" fill-rule="nonzero" opacity=".253" d="M.223 7.568L11.936.953l12.79 6.624.073-.042V20.9l-12.27 7.016v.054l-.047-.027-.047.027v-.054L.165 20.9V7.535z"/></g><path id="Shape" fill="url(#linearGradient-34)" fill-rule="nonzero" opacity=".043" d="M.085 0l33.076 83.31L68.723 0z"/></g></g><g id="Group" stroke-width="1" fill="none" fill-rule="evenodd" transform="translate(130.018 85.646)"><ellipse id="Oval" fill="#E6E8ED" fill-rule="nonzero" opacity=".8" cx="27.267" cy="55.271" rx="24.297" ry="9.146"/><path d="M28.264 29.968c.107 14.565-.394 22.044-.393 22.435.01.12-.193.245-.751.285-.558.04-1.017-.02-1.024-.134-.149-.835-.972-10.237-2.166-27.125-.093-1.305.42-3.763 1.044-3.763l6.914.324c.262 0 1.17 1.7 1.17 4.107 0 1.157-.336 2.951-.306 3.87.09 2.733-.185 10.216-.397 22.436.01.127-.221.245-.78.285-.528.037-1.257-.183-1.309-.285l-2.002-22.435z" id="Shape" fill="#EEB5B8" fill-rule="nonzero"/><path d="M28.808 43c-1.92 0-3.51-.236-3.788-.544-.034-.046-.043-.071-.043-.096-1.442-6.923-2.164-11.84-2.164-14.78 0-2.958 1.287-5.15 2.164-6.575h7.707c.875 2.324 1.312 4.515 1.312 6.575 0 2.06-.437 7.018-1.312 14.876h-.088c-.278.308-1.868.544-3.788.544z" id="Shape" fill="#5D5A8F" fill-rule="nonzero"/><path d="M28.808 43c-1.92 0-3.51-.236-3.788-.544-.034-.046-.043-.071-.043-.096-1.442-6.923-2.164-11.84-2.164-14.78 0-2.958 1.287-5.15 2.164-6.575h7.707c.875 2.324 1.312 4.515 1.312 6.575 0 2.06-.437 7.018-1.312 14.876h-.088c-.278.308-1.868.544-3.788.544z" id="Shape" fill="#5D5A8F" fill-rule="nonzero"/><ellipse id="Oval" stroke="#FF8D8D" stroke-width="2.702" cx="27.446" cy="31.729" rx="24.297" ry="9.146"/><path d="M35.174 21.612c.959 2.55 1.675 4.065 2.149 4.541a9.61 9.61 0 0 1 1.216 1.485l-1.216-.4c-.28.524.125.929 1.216 1.215 1.636.428 2.601 0 2.601 0l.496-.815c.093-.73-.196-1.224-.866-1.485-.671-.26-.901-.394-.69-.401l.69-1.234c-.12-.47-.349-.47-.69 0-.34.47-.544.881-.61 1.234l-2.147-5.254c-.735-.14-1.237-.14-1.506 0-.269.14-.483.51-.643 1.114z" id="Shape" fill="#EEB5B8" fill-rule="nonzero"/><path id="Shape" stroke="#00FEFF" stroke-width=".965" opacity=".2" d="M8.265 30.396l1.538-.76 1.06.76 3.833-.38"/><g opacity=".3"><g id="F-link" transform="translate(36 5)" fill="#000" fill-rule="nonzero"><path id="F" d="M.886.058l9.672 4.144v6.53L.886 6.554z"/></g><g id="F-link" transform="translate(36 5)" fill="url(#linearGradient-5)" fill-rule="nonzero"><path id="F" d="M.886.058l9.672 4.144v6.53L.886 6.554z"/></g><g id="H-link" transform="translate(32 22)" fill="#000" fill-rule="nonzero"><path id="H" d="M.216 1.51l11.16-.88v7.013l-11.16.879z"/></g><g id="H-link" transform="translate(32 22)" fill="url(#linearGradient-5)" fill-rule="nonzero"><path id="H" d="M.216 1.51l11.16-.88v7.013l-11.16.879z"/></g><g id="J-link" transform="translate(8 24)" fill="#000" fill-rule="nonzero"><path id="J" d="M.009.962l8.28 4.363v5.322L.009 6.609z"/></g><g id="J-link" transform="translate(8 24)" fill="url(#linearGradient-5)" fill-rule="nonzero"><path id="J" d="M.009.962l8.28 4.363v5.322L.009 6.609z"/></g><g fill-rule="nonzero" id="L-link"><g fill="#000" transform="matrix(-1 0 0 1 56.343 17)"><path id="L" d="M.835.906l9.672 4.144v6.53L.835 7.402z"/></g><g fill="url(#linearGradient-5)" transform="matrix(-1 0 0 1 56.343 17)"><path id="L" d="M.835.906l9.672 4.144v6.53L.835 7.402z"/></g></g><ellipse id="Oval" stroke="#FFF" stroke-width=".965" opacity=".4" cx="39.861" cy="26.371" rx="1.801" ry="1.953"/><g fill-rule="nonzero" id="N-link"><g fill="#000"><path id="N" d="M.197 6.173L13.433.153v8.104L.197 14.28z"/></g><g fill="url(#linearGradient-5)"><path id="N" d="M.197 6.173L13.433.153v8.104L.197 14.28z"/></g></g><g fill-rule="nonzero" id="P-link"><g fill="#000" transform="matrix(-1 0 0 1 16.141 12)"><path id="P" d="M.298.682L9.844 6.02v6.53L.298 7.178z"/></g><g fill="url(#linearGradient-5)" transform="matrix(-1 0 0 1 16.141 12)"><path id="P" d="M.298.682L9.844 6.02v6.53L.298 7.178z"/></g></g><path d="M7.357 8.918c.595 0 1.13-1.014 1.194-2.265.065-1.25-.365-2.264-.96-2.264-.37 0-.718.393-.942.992a4.3 4.3 0 0 0-.252 1.272c-.065 1.25.365 2.265.96 2.265z" id="Shape" stroke="#FFF" stroke-width=".965" opacity=".4"/></g><g transform="translate(16.779 1.831)" fill-rule="nonzero"><path d="M8.655 3.321v11.741l6.302-1.662V3.32a3.151 3.151 0 0 0-6.302 0v.001z" id="Shape" fill="#8787FC"/><g id="Q-link" transform="translate(0 8)" fill="#5D5A8F"><path d="M11.625.889h4.428c.765 0 1.393.78 1.885 2.338.062.111.117.228.163.349.648 1.7 1.245 3.473 2.404 7.02-.885-.212-1.608.144-2.169 1.068L15.733 4.64c.228 3.204.32 6.495.32 6.958 0 .245-.237.46-.633.64.297.816.759 1.673.817 2.127.275 2.153-9.942 2.265-9.082-1.235.091-.37.206-.765.325-1.165-.168-.163-.262-.35-.262-.563 0-.414.087-2.668.262-6.762L1.843 7.69C.971 7.628.416 7.24.178 6.53c-.237-.712-.237-1.084 0-1.116L6.921 1.22A3.47 3.47 0 0 1 9.353.748l2.272.14v.001z" id="Q"/></g></g><path d="M18.633 17.486l-1.807 1.02a1556.44 1556.44 0 0 0-6.38-5.95c-1.196-1.1-1.545-.81-1.638-1.483-.093-.673-.788-1.528-.973-1.977-.12-.29-.06-.507.278-.289.186.12.474.54.695.808.59.717-1.159-2.497-1.159-2.862 0-.275.28-.117.67.095.126.07.383.36.49.36.287 0 .994 1.288 2.12 3.865l6.09 4.135c-.036.536.087 1.003.37 1.401.282.399.697.69 1.244.877z" id="Shape" fill="#EEB5B8" fill-rule="nonzero"/><path d="M37.786 10.645c.623-.538 1.321-.718 2.093-.538 1.158.269 2.772 1.085 3.693.235.614-.567 1.437-.832 2.47-.796" id="Shape" stroke="#00FEFF" stroke-width=".965"/></g><g id="Group" opacity=".4" stroke-width="1" fill="none" fill-rule="nonzero" transform="translate(135 143)"><g id="S-link"><g fill="#000" transform="translate(19.469 15.628)"><path d="M2.02 8.945l13.596-7.939a.938.938 0 0 1 1.411.81v8.773c0 1-.531 1.926-1.395 2.43l-13.596 7.94a.938.938 0 0 1-1.411-.811v-8.773c0-1 .531-1.926 1.395-2.43z" id="S"/></g><g fill="url(#linearGradient-5)" transform="translate(19.469 15.628)"><path d="M2.02 8.945l13.596-7.939a.938.938 0 0 1 1.411.81v8.773c0 1-.531 1.926-1.395 2.43l-13.596 7.94a.938.938 0 0 1-1.411-.811v-8.773c0-1 .531-1.926 1.395-2.43z" id="S"/></g></g><g id="U-link"><g fill="#000" transform="translate(.469 40.628)"><path d="M1.395 7.977L13.575.865a.938.938 0 0 1 1.41.808l.025 9.968a2.815 2.815 0 0 1-1.396 2.437L1.411 21.203A.938.938 0 0 1 0 20.393v-9.986c0-1 .531-1.926 1.395-2.43z" id="U"/></g><g fill="url(#linearGradient-5)" transform="translate(.469 40.628)"><path d="M1.395 7.977L13.575.865a.938.938 0 0 1 1.41.808l.025 9.968a2.815 2.815 0 0 1-1.396 2.437L1.411 21.203A.938.938 0 0 1 0 20.393v-9.986c0-1 .531-1.926 1.395-2.43z" id="U"/></g></g><g id="W-link"><g fill="#000" transform="translate(40.469 .628)"><path d="M1.88 4.169L7.486.92a.938.938 0 0 1 1.408.81l.026 13.657a2.815 2.815 0 0 1-1.397 2.437L1.887 21.11a.938.938 0 0 1-1.41-.81V6.603c0-1.004.534-1.932 1.403-2.435v.001z" id="W"/></g><g fill="url(#linearGradient-5)" transform="translate(40.469 .628)"><path d="M1.88 4.169L7.486.92a.938.938 0 0 1 1.408.81l.026 13.657a2.815 2.815 0 0 1-1.397 2.437L1.887 21.11a.938.938 0 0 1-1.41-.81V6.603c0-1.004.534-1.932 1.403-2.435v.001z" id="W"/></g></g><g id="Y-link"><g fill="#000" transform="translate(18.469 35.628)"><path d="M2.21 3.403L7.817.155a.938.938 0 0 1 1.408.81l.026 13.652a2.815 2.815 0 0 1-1.403 2.44l-5.632 3.264a.938.938 0 0 1-1.409-.812V5.84c0-1.005.535-1.933 1.404-2.436l-.001-.001z" id="Y"/></g><g fill="url(#linearGradient-5)" transform="translate(18.469 35.628)"><path d="M2.21 3.403L7.817.155a.938.938 0 0 1 1.408.81l.026 13.652a2.815 2.815 0 0 1-1.403 2.44l-5.632 3.264a.938.938 0 0 1-1.409-.812V5.84c0-1.005.535-1.933 1.404-2.436l-.001-.001z" id="Y"/></g></g><g id="aa-link"><g fill="#000" transform="translate(6.469 19.628)"><path d="M1.536 3.916L7.143.668a.938.938 0 0 1 1.408.81l.026 13.652a2.815 2.815 0 0 1-1.404 2.441l-5.632 3.263a.938.938 0 0 1-1.408-.812V6.352c0-1.005.535-1.933 1.403-2.436z" id="aa"/></g><g fill="url(#linearGradient-5)" transform="translate(6.469 19.628)"><path d="M1.536 3.916L7.143.668a.938.938 0 0 1 1.408.81l.026 13.652a2.815 2.815 0 0 1-1.404 2.441l-5.632 3.263a.938.938 0 0 1-1.408-.812V6.352c0-1.005.535-1.933 1.403-2.436z" id="aa"/></g></g><g id="ac-link"><g fill="#000" transform="translate(33.469 24.628)"><path d="M1.512 7.675L13.692.563a.938.938 0 0 1 1.41.808l.025 9.968a2.815 2.815 0 0 1-1.396 2.437L1.528 20.902a.938.938 0 0 1-1.411-.81v-9.987c0-1 .531-1.926 1.395-2.43z" id="ac"/></g><g fill="url(#linearGradient-5)" transform="translate(33.469 24.628)"><path d="M1.512 7.675L13.692.563a.938.938 0 0 1 1.41.808l.025 9.968a2.815 2.815 0 0 1-1.396 2.437L1.528 20.902a.938.938 0 0 1-1.411-.81v-9.987c0-1 .531-1.926 1.395-2.43z" id="ac"/></g></g></g><g id="Group" stroke-width="1" fill="none" fill-rule="nonzero" transform="translate(191 119)"><path id="Shape" fill="#E2E6EB" d="M7.328 22.373L38.356 4.341v18.188L7.328 40.56z"/><path d="M8.308 22.656l6.846-3.936v7.79l-6.846 3.935v-7.789zm0 8.484l6.845-3.926v7.79l-6.845 3.925V31.14zm7.512-12.726l6.72-3.852v7.79l-6.72 3.851v-7.789zm0 8.484l6.532-3.958v7.79l-6.532 3.957v-7.789zm7.512-13.052l6.79-3.922v7.79l-6.79 3.921v-7.789zm0 8.484l6.924-4.036v7.808l-6.924 4.017V22.33zm7.512-12.726l6.816-3.845v7.789l-6.816 3.845V9.604zm0 8.484l6.808-3.958v7.79l-6.808 3.957v-7.789z" id="Shape" fill="#CFCED8"/><path d="M15.166 26.53l-6.858-3.755v-.088l6.858-3.988v7.831zm0 8.483l-6.858-3.755v-.088l6.858-3.988v7.831zm7.386-12.623l-6.732-3.857v-.088l6.732-3.886v7.831zm-.189 8.321l-6.543-3.695v-.088l6.543-4.048v7.831zM30.19 17.72l-6.858-3.755v-.088l6.858-3.989v7.832zm.038 8.373l-6.896-3.645v-.088l6.896-4.098v7.831zm7.474-12.615l-6.858-3.755v-.088l6.858-3.988v7.831zm0 8.483l-6.858-3.755v-.088l6.858-3.988v7.831z" id="Shape" fill="#C1C1CC"/><path d="M.469 18.343L31.231.426l7.125 4.193L7.184 22.321c-2.242.029-3.916-.287-5.02-.947-1.106-.66-1.67-1.67-1.695-3.031z" id="Shape" fill="#FFF"/><path id="Shape" fill="#DAD9E5" d="M.469 18.046l6.859 4.128V40.56L.469 36.433z"/><path id="Shape" fill="#D8D8D8" d="M21.816 15.845l-.91-.342-.862.467.561.762.861.235z"/><path id="Shape" fill="#FFE299" d="M21.808 22.054l-.557.341V16.2l.571-.359z"/><path id="Shape" fill="#FFC977" d="M17.152 20.266l4.099 2.13v-6.197l-.965-.376-3.271 1.86z"/><path id="Shape" fill="#D8D8D8" d="M20.417 16.759l-1.002-.432-.564.319.122.902.86.235z"/><path id="Shape" fill="#8787FC" d="M20.436 22.562l-.41.241-.015-5.79.425-.26z"/><path id="Shape" fill="#7B7BE4" d="M15.986 21.105l4.04 1.698V17.01l-1.138-.411-2.902 1.714z"/></g><g id="Group" stroke-width="1" fill="none" fill-rule="nonzero" transform="translate(139 179)"><g transform="rotate(-30 73.106 17.582)" fill="#FFF" id="ad-link"><path id="ad" d="M.66.245l61.991.29 12.035 20.899-61.683-.247z"/></g><path d="M40.985 23.229c-.484.272-1.115-.445-1.168-.993l-1.5-11.97a.757.757 0 0 1 .388-.734L54.202.904a.77.77 0 0 1 1.142.588l1.216 12.472a.756.756 0 0 1-.385.733l-15.19 8.532z" id="Shape" fill="#D7D9E1"/><path d="M40.036 21.853l16.407-9.39-1.037-10.734a.757.757 0 0 0-1.125-.586l-15.34 8.551a.756.756 0 0 0-.382.73l1.477 11.43v-.001z" id="Shape" fill="#415070"/><path id="Shape" fill="#9E9E9E" d="M55.839 12.04l-15.186 8.498-1.252-10.197 15.405-8.579z"/><path id="Shape" fill="#D7D9E1" d="M39.47 10.896l-.069-.555 15.405-8.579.061.607z"/></g><g id="Group" stroke-width="1" fill="none" fill-rule="nonzero" transform="translate(89.38 87.133)"><path d="M1.843 33.211L.84 25.41h6.89l-1.01 7.831c-.382.422-1.333.696-2.436.696-1.084 0-2.044-.286-2.437-.695l-.005-.03.001-.001z" id="Shape" fill="url(#linearGradient-35)"/><path d="M4.285 27.498c1.601 0 2.97-.413 3.521-.996.168-.177.26-.37.26-.57 0-.866-1.693-1.567-3.781-1.567s-3.78.701-3.78 1.566c0 .208.097.407.275.589.561.573 1.919.978 3.505.978z" id="Shape" fill="url(#linearGradient-36)"/><path d="M.556 25.931c.046.114.122.224.224.328.561.573 1.919.978 3.505.978 1.601 0 2.97-.413 3.521-.996a.973.973 0 0 0 .207-.31.691.691 0 0 1 .052.262c0 .201-.091.394-.259.57-.55.583-1.92.996-3.521.996-1.586 0-2.944-.405-3.505-.978-.178-.182-.276-.38-.276-.588a.7.7 0 0 1 .052-.262z" id="Shape" fill="url(#linearGradient-37)"/><path d="M4.28 26.628c1.457 0 2.702-.276 3.203-.664.152-.118.236-.246.236-.38 0-.577-1.54-1.045-3.44-1.045-1.899 0-3.439.468-3.439 1.044 0 .14.09.271.25.393.512.382 1.747.652 3.19.652z" id="Shape" fill="url(#linearGradient-38)"/><path d="M2.352 5.86h1.345v20.071a1.788 1.788 0 0 1-.672.138c-.221 0-.445-.046-.673-.138V5.86z" id="Shape" fill="url(#linearGradient-18)"/><path id="Shape" fill="url(#linearGradient-16)" d="M3.697 8.305H5.04v17.626H3.697z"/><path d="M4.369 8.421c.371 0 .672-.054.672-.12 0-.067-.301-.121-.672-.121-.371 0-.672.054-.672.12 0 .067.3.121.672.121z" id="Shape" fill="#D59F9F"/><g transform="translate(3.529 9.572)" fill="url(#linearGradient-17)" id="Rectangle-path"><rect y="10.442" width="1.68" height="1" rx=".5"/><rect y="5.221" width="1.68" height="1" rx=".5"/><rect width="1.68" height="1" rx=".5"/><rect y="16.185" width="1.68" height="1" rx=".5"/></g><path id="Shape" fill="url(#linearGradient-18)" d="M5.04.115h1.345v25.816H5.041z"/><rect id="Rectangle-path" fill="url(#linearGradient-19)" x="4.873" y="14.445" width="1.68" height="1" rx=".5"/><rect id="Rectangle-path" fill="url(#linearGradient-19)" x="4.873" y="9.224" width="1.68" height="1" rx=".5"/><rect id="Rectangle-path" fill="url(#linearGradient-19)" x="4.873" y="4.003" width="1.68" height="1" rx=".5"/><rect id="Rectangle-path" fill="url(#linearGradient-19)" x="4.873" y="20.014" width="1.68" height="1" rx=".5"/><rect id="Rectangle-path" fill="url(#linearGradient-19)" x="4.873" y="25.583" width="1.68" height="1" rx=".5"/><rect id="Rectangle-path" fill="url(#linearGradient-19)" x="2.184" y="18.622" width="1.68" height="1" rx=".5"/><path d="M1.391 26.15c-.625-.67.284-1.008.555-.713.192.21.605.21 1.238 0 .66-.202 1.163-.252 1.508-.151.518.151 1.413 0 1.803 0 .26 0 .457.185.591.555a.596.596 0 0 1-.064.373c-.628.251-1.623.414-2.742.414-1.211 0-2.276-.19-2.889-.477v-.001z" id="Shape" fill="#936461"/><rect id="Rectangle-path" fill="url(#linearGradient-19)" x="2.184" y="13.401" width="1.68" height="1" rx=".5"/><rect id="Rectangle-path" fill="url(#linearGradient-19)" x="2.184" y="8.18" width="1.68" height="1" rx=".5"/><rect id="Rectangle-path" fill="url(#linearGradient-19)" x="2.184" y="24.017" width="1.68" height="1" rx=".5"/><path d="M5.713.241c.371 0 .672-.054.672-.12 0-.067-.3-.121-.672-.121-.371 0-.672.054-.672.12 0 .067.3.121.672.121zM3.025 5.985c.37 0 .672-.054.672-.121s-.301-.12-.672-.12c-.372 0-.673.053-.673.12s.301.12.673.12v.001z" id="Shape" fill="#E9AFAF"/><path d="M5.881 5.966c.888-1.544 1.674-2.449 2.356-2.715a6.714 6.714 0 0 1 1.962-.466c-.53.649-1.114 1.101-1.75 1.358-.638.256-1.494.864-2.568 1.823zm-1.563 8.528c-.888-1.544-1.674-2.449-2.357-2.715A6.714 6.714 0 0 0 0 11.312c.53.65 1.113 1.102 1.75 1.359.638.256 1.494.864 2.568 1.823zm1.731-.397c.405-1.098.763-1.741 1.074-1.93.311-.19.61-.3.894-.333-.241.462-.507.784-.798.966-.29.183-.68.615-1.17 1.297zm-.504 4.873c.405-1.098.763-1.741 1.074-1.93.311-.19.61-.3.894-.332-.241.461-.507.783-.798.965-.29.183-.68.615-1.17 1.297zm-3.073-2.262c-.405-1.098-.763-1.742-1.074-1.931-.311-.19-.61-.3-.894-.332.242.462.508.784.798.966.29.182.68.615 1.17 1.297zm.336 5.742c-.405-1.097-.763-1.74-1.074-1.93-.311-.19-.61-.3-.894-.332.242.462.508.784.798.966.29.183.68.615 1.17 1.297v-.001z" id="Shape" fill="#95CA77"/></g><g id="Group" stroke-width="1" fill="none" fill-rule="nonzero" transform="translate(197.93 119.345)"><path d="M3.084 10.277c0-.306.087-.663.32-.93.234-.268.64-.329 1.068-.416.912-.186 2.141-.156 3.552-.156 1.349 0 2.542-.016 3.433.156.442.085.832.15 1.086.417.27.284.42.598.42.929 0 .852-.998 3.685-2.48 4.082-.77.268-3.617.534-4.901.004-1.492-.395-2.498-3.23-2.498-4.086z" id="Shape" fill="#FDB2BD"/><path d="M8.226 7.61c-.423-.903-.786-1.465-1.086-1.688-.301-.222-.782-.504-1.443-.845l-2.19.845c2.765 0 3.976.66 3.633 1.98-.343 1.32.019 1.222 1.086-.293v.001z" id="Shape" fill="#B36C6D"/><ellipse id="Oval" fill="#8A7375" cx="8.003" cy="9.462" rx="4.551" ry="1"/><path id="Shape" fill="#B36C6D" d="M10.308 6.82L8.77 3.74l.3-.357 1.693 3.004z"/><path d="M6.188 9.138l.079-.54c-.184.296-.297.428-.34.397-.122-.093-.15.093-.15.144 0 .107.027.274.08.501-.25-.006-.375-.015-.375-.028 0-.073-.375-1.09.086-1.008.46.082.133-.59.957-.722.824-.133 1.33-1.171 1.273-1.547-.057-.377-.435-.798-.365-.875.07-.077-.377-.894-.908-1.732l.908-.26.844 1.389c.136-.063.203-.012.203.155v.448c0 .081.208-.089.31.236.102.325.264.64.132.843-.088.136-.259.462-.512.976.448-.106.713-.072.794.104.082.175.05.417-.097.727.371-.023.401.326.648.521s.317.524.797.779v-.034c-2.119.03-3.573.041-4.364.034v-.508z" id="Shape" fill="#D69591"/><path d="M8.088 6.625s.896-.433 1.147-.364c.252.069.872.523 1.19-.074.214-.397.454-.744.723-1.04v1.04l-.47.938c-.202.292-.63.292-1.284 0-.443-.198-.721.282-.984.444-.125.078.288-.782-.322-.944z" id="Shape" fill="#D69591"/><path d="M5.885 8.38c.24-.22.478-.331.712-.331.154 0 .258-.1.311-.3.147-.081.279-.19.393-.311l.036.01c-.135.098-.238.298-.308.601-.105.454-.61.62-.078 1.587l.006.012c-.303 0-.56 0-.769-.002v-.508l.079-.54c-.184.296-.297.428-.34.397-.122-.093-.15.093-.15.144 0 .107.027.274.08.501-.25-.006-.375-.015-.375-.028 0-.073-.375-1.09.086-1.008.204.037.253-.076.317-.223V8.38z" id="Shape" fill="#B36C6D"/><path d="M6.552 9.648l-.364-.002v-.508l.07-.481.023-.05.16-.147.111 1.188zm2.468-.016l-.434.004c-.08-.246-.08-.434 0-.564.081-.133.226.054.434.56z" id="Shape" fill="#89555B"/><path d="M9.005 9.632l-.381-.597.2-.209c.057.14.021.087.197.347.147.218.267.37.36.454l-.376.005z" id="Shape" fill="#B36C6D"/><path d="M8.397 7.546c-.545.48-.817.865-.817 1.156 0 .29-.028.542-.084.755l-.2.188h.34c-.028-.318.062-.477.27-.477.117.193.196.349.235.468h.08c-.173-.48-.279-.856-.316-1.128-.037-.271.127-.592.492-.962z" id="Shape" fill="#89555B"/><path d="M5.165 3.807c-1.408.748-2.205 1.518-2.39 2.312-.277 1.19 1.67 1.41 3.184.766 1.514-.642 1.13-1.633 2.246-1.53 1.115.104 1.414-2.142-.033-1.527-.965.41-1.967.402-3.007-.02v-.001z" id="Shape" fill="#6DAC4C"/><path d="M9.115 8.355c-.05.07-.033.13.05.18.125.075.46.176.583.505.082.22.302.408.66.567h-.313a5.177 5.177 0 0 1-.347-.567c-.076-.164-.399-.164-.583-.32-.122-.103-.139-.225-.05-.365z" id="Shape" fill="#B36C6D"/><path d="M12.916 6.995c.62.038 1.768-.481 1.742-.924-.026-.443-.476-.815-.679-.733-.203.082-.154-.69-1.076-.265-.922.425-.753-.315-1.079-.732-.326-.417-.866-.447-1.325-.261-.458.185-.627.723-.845 1.138-.218.415-.566.776.01 1.112.575.336 1.246-.126 1.63-.281.385-.156.423-.026.553.295.13.322.449.614 1.069.651z" id="Shape" fill="#76B755"/><path d="M12.26 4.907c.62.037 1.768-.482 1.742-.925-.026-.443-.476-.815-.679-.732-.203.082-.154-.69-1.076-.265-.922.424-.753-.315-1.079-.733-.326-.417-.866-.447-1.325-.261-.458.185-.626.723-.844 1.138-.219.415-.567.777.009 1.112.575.336 1.247-.126 1.631-.281.384-.155.422-.026.552.296.13.321.45.613 1.069.65v.001z" id="Shape" fill="#76B755"/><path d="M9.702 5.576c-.62.037-1.769-.482-1.743-.925.026-.443.476-.814.68-.732.203.082.153-.69 1.075-.265.922.424.753-.315 1.08-.732.325-.418.865-.447 1.324-.262.459.185 1.282.553 1.5.968.218.415-.325 1.592-.9 1.928-.576.336-1.115.165-1.5.01-.384-.156-.317-.963-.447-.641-.13.322-.45.613-1.07.65l.001.001z" id="Shape" fill="#6DAC4C"/><path d="M3.136 7.265C2.018 7.798.399 6.858.116 6.019c-.283-.84.407-1.09.844-1.09.438 0-.23-1.39 1.792-1.294 2.023.096 1.158-1.146 1.45-2.161C4.491.459 5.468 0 6.455 0c.988 0 1.75.249 2.463.853.713.605 1.287 1.476.765 2.685-.522 1.21-1.705 1.597-2.532 1.597s-1.857-.898-1.857-.206c0 .692-1.04 1.804-2.159 2.336h.001z" id="Shape" fill="#82C262"/></g><g id="Group" stroke-width="1" fill="none" fill-rule="evenodd" transform="translate(58 158)"><path d="M21.028 27.59c12.662 7.154 24.144 10.721 25.644 7.966 1.5-2.756-7.548-10.79-20.21-17.945C13.799 10.456 2.318 6.889.817 9.644c-1.5 2.756 7.549 10.79 20.211 17.945v.001z" id="Shape" fill="#E6E8ED" fill-rule="nonzero" opacity=".8"/><g transform="translate(27.043 18.061)" fill="#AD7E7F" fill-rule="nonzero"><path id="Shape" d="M0 0h2.474l-.41 12.82H.413z"/><circle id="Oval" cx="1.237" cy="12.804" r="1"/></g><g transform="translate(32.403 18.061)" fill="#AD7E7F" fill-rule="nonzero"><path id="Shape" d="M2.38.061l-.317 9.913H.414L.094.042z"/><circle id="Oval" cx="1.237" cy="9.959" r="1"/></g><g transform="translate(.892 .991)"><path d="M21.373 18.86c12.663 6.841 24.144 10.251 25.644 7.617 1.5-2.635-7.548-10.316-20.21-17.157C14.143 2.479 2.662-.931 1.162 1.703c-1.5 2.635 7.548 10.316 20.21 17.157h.001z" id="Shape" fill="#956C6D" fill-rule="nonzero"/><g id="aj-link" transform="translate(1)" fill="#C39293" fill-rule="nonzero"><path d="M20.668 17.943c12.59 6.802 24.004 10.192 25.496 7.573 1.492-2.62-7.505-10.257-20.094-17.058C13.48 1.656 2.066-1.734.574.885c-1.492 2.62 7.505 10.257 20.094 17.058z" id="aj"/></g><g id="Clipped" transform="translate(1)"><mask id="mask-40" fill="#fff"><use xlink:href="#path-39"/></mask><path d="M13.194 2.032c.519 0 2.98 4.882 2.98 6.293 0 1.412-2.568 3.59 2.835 3.59 5.404 0 10.925 2.205 13.193 2.205 1.512 0 3.287-.193 5.325-.578" id="Shape" stroke="#B17D7E" stroke-width=".965" mask="url(#mask-40)"/></g><g id="Clipped" transform="translate(1)"><mask id="mask-42" fill="#fff"><use xlink:href="#path-41"/></mask><path d="M16.493 2.845c1.036 2.51 1.554 4.333 1.554 5.467 0 1.7 2.107 2.07 4.941 2.07 2.835 0 6.407 1.734 8.011 1.734 1.07 0 1.867-.303 2.393-.908" id="Shape" stroke="#B17D7E" stroke-width=".965" mask="url(#mask-42)"/></g><g id="Clipped" transform="translate(1)"><mask id="mask-44" fill="#fff"><use xlink:href="#path-43"/></mask><path d="M21.49 5.716s-3.684-.333-2.15 1.374c1.536 1.707 1.182 1.876 3.284 1.876 1.402 0 3.043.385 4.925 1.155l-.801-3.031-5.258-1.374zm15.234 9.728c-.8.174-.508.838.877 1.993 2.077 1.733 3.694 3.606 5.124 4.93 1.43 1.325 3.682 2.883 4.486 2.883.804 0-1.552-6.782-1.552-6.782l-8.058-3.024h-.877z" id="Shape" stroke="#B17D7E" stroke-width=".965" mask="url(#mask-44)"/></g><g id="Clipped" transform="translate(1)"><mask id="mask-46" fill="#fff"><use xlink:href="#path-45"/></mask><path d="M.412-2.439C11.3 1.893 15.761 5.908 13.798 9.606c-2.945 5.548 13.443 4.248 18.127 5.862 4.684 1.613 14.448 11.473 8.775 13.64" id="Shape" stroke="#B17D7E" stroke-width=".965" mask="url(#mask-46)"/></g><g id="Clipped" transform="translate(1)"><mask id="mask-48" fill="#fff"><use xlink:href="#path-47"/></mask><path d="M-.825-1.22c10.887 4.332 15.349 8.347 13.386 12.045-2.945 5.548 13.443 4.248 18.127 5.862 4.684 1.613 14.448 11.473 8.775 13.64" id="Shape" stroke="#B17D7E" stroke-width=".965" mask="url(#mask-48)"/></g><g id="Clipped" transform="translate(1)"><mask id="mask-50" fill="#fff"><use xlink:href="#path-49"/></mask><path d="M-2.474 0C8.413 4.331 12.875 8.346 10.912 12.045c-2.945 5.548 13.443 4.248 18.127 5.861 4.684 1.614 14.448 11.473 8.775 13.64" id="Shape" stroke="#B17D7E" stroke-width=".965" mask="url(#mask-50)"/></g><g id="Clipped" transform="translate(1)"><mask id="mask-52" fill="#fff"><use xlink:href="#path-51"/></mask><path d="M-4.123 1.626C6.764 5.956 11.225 9.972 9.262 13.67c-2.944 5.548 13.443 4.248 18.127 5.862 4.684 1.613 14.449 11.473 8.775 13.64" id="Shape" stroke="#B17D7E" stroke-width=".965" mask="url(#mask-52)"/></g></g></g><g id="Group" stroke-width="1" fill="none" fill-rule="nonzero" transform="scale(-1 1) rotate(4 -2480.927 -1249.704)"><ellipse id="Oval" fill="#D8D8D8" opacity=".377" cx="2.478" cy="4.223" rx="1.487" ry="1"/><path d="M2.38 1.662c.679 0 1.176-.024 1.733-.127.004.02.137.001.14.02.037.212.067.437.067.665 0 1.522-.862 2.1-1.924 2.1-1.062 0-1.923-.578-1.923-2.1 0-.242.02-.452.061-.676.555.092 1.181.118 1.847.118H2.38z" id="Shape" fill="#D8D8D8"/><ellipse id="Oval" fill="#3E3D3D" cx="2.388" cy="1.55" rx="1.863" ry="1"/></g><g id="Group" stroke-width="1" fill="none" fill-rule="nonzero" transform="translate(90.168 172.718)"><path d="M2.32 3.537a.62.62 0 0 0-.42-.312c-.115-.025-.378-.451-1.026-.451-.145 0-.321.034-.527.102l-.253.442c.412-.062.709.135.892.59.117.29.527.443.772.702.708.752 1.059.752 1.054 0L2.32 3.537z" id="Shape" fill="#4E4E4E"/><path d="M.08 3.324s.112-.014.197-.136c.086-.122.215-.237.13-.297-.087-.06-.16.062-.246.184s-.081.25-.081.25v-.001z" id="Shape" fill="#262324"/><ellipse id="Oval" fill="#878585" cx="4.09" cy="2.762" rx="1.45" ry="1"/><path id="Shape" fill="#89555B" d="M6.205 1.483l.25.077-.4 1.224-.23-.14z"/><ellipse id="Oval" fill="#D8D8D8" opacity=".265" cx="4.212" cy="5.947" rx="2.726" ry="1"/><circle id="Oval" fill="#878585" cx="4.113" cy="2.201" r="1"/><path id="Shape" fill="#89555B" d="M2.857 2.515H6.06v1H2.857z"/><path id="Shape" fill="#89555B" d="M5.234 2.785v-.27h-3.03l-.31-1.033-.25.079.387 1.224z"/><path d="M1.255 4.132a.926.926 0 0 1 .009-.022c.302-.774.903-1.35 1.9-1.557.262-.054.54.175.858.175.344 0 .672-.218.958-.147.984.244 1.613.862 1.824 1.529a.718.718 0 0 1 .007.022H1.255z" id="Shape" fill="#878585"/><path d="M6.81 4.132a.926.926 0 0 1-.008.023c-.382.977-1.24 1.639-2.77 1.639s-2.498-.78-2.77-1.64a.718.718 0 0 1-.007-.022h5.556-.001zM2.337 2.47c.745.047 1.307.07 1.688.07s.944-.023 1.689-.07v.45c-.753.04-1.316.06-1.689.06s-.935-.02-1.688-.06v-.45z" id="Shape" fill="#4E4E4E"/><path d="M5.554 5.838c-.657.066-1.166.1-1.529.1-.362 0-.837-.034-1.424-.1l.162-.278c.452.11.874.165 1.265.165a6.51 6.51 0 0 0 1.35-.165l.176.278z" id="Shape" fill="#262324"/><path d="M1.89 2.264c-.08-.106-.039-.288-.08-.406-.04-.114-.165-.164-.165-.286C1.645.704 2.72 0 4.045 0c1.326 0 2.401.704 2.401 1.572 0 .045-.127.068-.143.112-.056.156-.075.324-.16.464-.017-.09.017-.09 0-.175-.014-.072.053-.226.053-.289 0-.806-.963-1.46-2.15-1.46-1.188 0-2.15.654-2.15 1.46 0 .122.067.19.082.29.015.101-.023.234-.089.29h.001z" id="Shape" fill="#89555B"/></g><g id="Group" stroke-width="1" fill="none" fill-rule="nonzero" transform="translate(134.478 25.186)"><path d="M24.344 64.94c.592 0 1.072.48 1.072 1.071v6.448a1.072 1.072 0 1 1-2.144 0v-6.448c0-.592.48-1.072 1.072-1.072v.001z" id="Shape" fill="#F8B7B9"/><ellipse id="Oval" fill="#E6E8ED" opacity=".4" cx="22.636" cy="116.875" rx="10.88" ry="4.107"/><ellipse id="Oval" fill="#7272FF" cx="23.36" cy="62.147" rx="1.072" ry="1.074"/><path d="M18.783 94.586c-.294-3.032-.441-4.934-.441-5.707 0-2.072.529-4.276 1.41-6.613l4.937.373c-.838 3.669-1.18 7.725-1.03 12.17.104 3.008-4.644 2.163-4.876-.223z" id="Shape" fill="#8787FC"/><path d="M29.884 94.586c.295-3.032.442-4.934.442-5.707 0-2.072-.879-4.276-1.76-6.613l-4.587.373c.838 3.669 1.18 7.725 1.029 12.17-.103 3.008 4.645 2.163 4.876-.223zM21.731 68.39c.649.362 1.42.583 2.314.661a9.08 9.08 0 0 0 2.805-.214c.573-1.354.8-2.6.683-3.735-.175-1.703-1.685-3.41-4.563-2.475-.938.304-1.612 1.097-1.777 1.977-.159.85.02 2.112.538 3.785v.001z" id="Shape" fill="#8787FC"/><path d="M25.845 65.015v11.953l1.715 1.612V65.787c0-.573-.336-1.092-.858-1.327a.608.608 0 0 0-.857.555zm-4.685.142V78.45l1.715-1.62V64.812a.716.716 0 0 0-.857-.702c-.499.1-.858.538-.858 1.047z" id="Shape" fill="#8787FC"/><path d="M24.344 64.94c1.184 0 2.144.96 2.144 2.143v.868a2.144 2.144 0 1 1-4.287 0v-.868c0-1.184.96-2.144 2.143-2.144v.001z" id="Shape" fill="#F8B7B9"/><path d="M21.784.114h6.357l18.506 115.994c0 5.29-8.287 8.422-24.863 9.396-13.138-.863-20.321-4.373-21.55-10.53L21.783.114h.001z" id="Shape" fill="#FFF" opacity=".2"/><path d="M24.525 66.8l-.41 1.23a.526.526 0 0 0 .498.692h.234l-.322-1.921V66.8z" id="Shape" fill="#E1A3A6"/></g><g id="Group" stroke-width="1" fill="none" fill-rule="nonzero" transform="translate(153 132)"><path d="M5.499 8.938c-.474.297-1.838 1.112-2.282 1.547-.443.434-1.394.703-1.819.495-.425-.208-.766-.683-.166-1.467.6-.783 1.985-1.341 1.985-1.761 0-.1 1.413.215 1.465.404.034.125.307-.192.817-.951.316.958.316 1.536 0 1.733z" id="Shape" fill="#54517F"/><path d="M5.499 8.711c-.474.297-1.838 1.112-2.282 1.547-.443.434-1.394.702-1.819.495-.425-.208-.766-.683-.166-1.467.6-.783 1.985-1.341 1.985-1.761 0-.087.182-.316.182-.648 0-.146-.187-2.36-.561-6.64l3.066 2.484-.405 4.257c.316.958.316 1.536 0 1.733z" id="Shape" fill="#C39293"/><path d="M9.698 8.515c0 1.204-.385 3.286-1.987 2.983-1.601-.304-.13-3.061-.13-3.798 0-.49.12-1.069.363-1.735h1.251c.385.73.601 1.238.65 1.525.088.53-.147.619-.147 1.025z" id="Shape" fill="#54517F"/><path d="M9.609 8.518c0 1.093-.326 3.176-1.928 2.872-1.601-.303-.1-3.212-.1-3.949 0-.49-.171-2.643-.513-6.458l3.106 1.74c-.276 2.16-.4 3.33-.373 3.513.004.032-.004.86 0 .892.104.897-.192 1.004-.192 1.39z" id="Shape" fill="#C39293"/></g><g id="Group" stroke-width="1" fill="none" fill-rule="evenodd" transform="translate(77.487 119.345)"><path d="M5.3 33.661l-1.304-.393V31.86l2.08-.384c.093-.079.191-.15.296-.214l14.245-8.702L60.42 45.203 44.504 54.34a4.637 4.637 0 0 1-4.607.006L6.431 35.254a2.313 2.313 0 0 1-1.13-1.593H5.3z" id="Shape" fill="#C39293" fill-rule="nonzero"/><path d="M23.022 22.872L59.96 44.467l-15.434 8.825a4.637 4.637 0 0 1-4.601.002L6.44 34.168a2.318 2.318 0 0 1-.059-3.992l11.883-7.258a4.637 4.637 0 0 1 4.758-.046z" id="Shape" fill="#E8C3C2" fill-rule="nonzero"/><path id="Shape" fill="#F7D6C8" fill-rule="nonzero" d="M23.293 2.452l2.595 2.122-2.788 4.51-2.84-3.29z"/><g transform="translate(1.173 2.226)"><g id="al-link" fill="#FFA598" fill-rule="nonzero"><path d="M.523 23.96A2.433 2.433 0 0 1 0 22.457V15.21a4.83 4.83 0 0 1 2.453-4.204L20.538.784a1.207 1.207 0 0 1 1.802 1.05v9.318a4.83 4.83 0 0 1-2.453 4.205L4.093 24.284l-.788 3.61-2.782-2.18V23.96z" id="al"/></g><g id="Clipped"><mask id="mask-54" fill="#fff"><use xlink:href="#path-53"/></mask><path id="Shape" fill="url(#linearGradient-55)" fill-rule="nonzero" mask="url(#mask-54)" d="M-2.757 11.131l7.066 4.296.694 14.562-8.4-3.829z"/></g></g><path d="M6.286 15.336L24.37 5.114a1.207 1.207 0 0 1 1.801 1.05v9.319a4.83 4.83 0 0 1-2.453 4.204L7.436 28.891a2.415 2.415 0 0 1-3.604-2.102V19.54a4.83 4.83 0 0 1 2.454-4.204z" id="Shape" fill="url(#linearGradient-56)" fill-rule="nonzero"/><g transform="translate(2.812 18.957)"><g id="ap-link" fill="url(#linearGradient-56)" fill-rule="nonzero"><path d="M1.4 11.94L0 11.52V7.63l4.078-.484.17 1.18L17.275.45 58.73 23.883 42.176 33.29a4.83 4.83 0 0 1-4.768.002L2.572 13.543A2.41 2.41 0 0 1 1.4 11.94z" id="ap"/></g><g id="Clipped"><mask id="mask-58" fill="#fff"><use xlink:href="#path-57"/></mask><path d="M19.049 23.773v-3.406c0-.752.41-1.445 1.069-1.808l16.914-9.312" id="Shape" stroke="#D57568" stroke-width=".965" mask="url(#mask-58)"/></g><g id="Clipped"><mask id="mask-60" fill="#fff"><use xlink:href="#path-59"/></mask><path d="M-.82 9.798l37 20.781a7.43 7.43 0 0 0 6.918.19l4.951-2.436" id="Shape" stroke="#DCDCDC" stroke-width=".965" mask="url(#mask-60)"/></g></g><g transform="translate(0 12.58)"><g id="ar-link" transform="rotate(11 -.143 32.786)" fill="#F59689" fill-rule="nonzero"><path d="M16.677.414l43.053 13.91-14.983 12.762a4.83 4.83 0 0 1-4.67.9L2.081 15.217a2.415 2.415 0 0 1-.852-4.079L11.95 1.43A4.83 4.83 0 0 1 16.677.414z" id="ar"/></g><g id="Clipped" transform="translate(3 6)"><mask id="mask-62" fill="#fff"><use xlink:href="#path-61"/></mask><path d="M18.861 23.325v-2.581c0-.753.41-1.446 1.069-1.808l16.915-9.312" id="Shape" stroke="#D57568" stroke-width=".965" mask="url(#mask-62)"/></g></g><g transform="translate(21.257)"><g id="at-link" fill="#FFA79B" fill-rule="nonzero"><path d="M2.487 6.332L.22 2.316 3.933.442l.172 1.223a2.776 2.776 0 0 1 2.87-.127l40.06 21.74a4.83 4.83 0 0 1 2.465 5.008l-2.024 12.65-43.34-24.625a4.83 4.83 0 0 1-2.392-4.899l.743-5.08z" id="at"/></g><g id="Clipped"><mask id="mask-64" fill="#fff"><use xlink:href="#path-63"/></mask><path d="M26.405 11.761l-2.836.933a5.16 5.16 0 0 0-3.497 4.175l-1.591 11.19" id="Shape" stroke="#D57568" stroke-width=".965" mask="url(#mask-64)"/></g><g id="Clipped"><mask id="mask-66" fill="#fff"><use xlink:href="#path-65"/></mask><path d="M.279-.097l45.076 24.434a4.644 4.644 0 0 1 2.414 4.475l-.809 9.566" id="Shape" stroke="#DCDCDC" stroke-width=".965" mask="url(#mask-66)"/></g><g id="Clipped"><mask id="mask-68" fill="#fff"><use xlink:href="#path-67"/></mask><path id="Shape" fill="url(#linearGradient-69)" fill-rule="nonzero" mask="url(#mask-68)" d="M44.267 27.796l1.28.78 3.778 2.129 2.07 8.795V24.705z"/></g><g id="Clipped"><mask id="mask-71" fill="#fff"><use xlink:href="#path-70"/></mask><path d="M.279-.097l45.076 24.434a4.644 4.644 0 0 1 2.414 4.475l-.809 9.566" id="Shape" stroke="#DCDCDC" stroke-width=".965" mask="url(#mask-71)"/></g></g><g transform="translate(18.388 3.025)"><g id="aw-link" fill="url(#linearGradient-72)" fill-rule="nonzero"><path d="M5.858.46l39.915 21.543a4.83 4.83 0 0 1 2.497 4.863l-1.584 12.375-43.599-24.01a4.83 4.83 0 0 1-2.45-4.93l1.14-7.792A2.787 2.787 0 0 1 5.859.46h-.001z" id="aw"/></g><g id="Clipped"><mask id="mask-74" fill="#fff"><use xlink:href="#path-73"/></mask><path d="M29.274 8.736l-3.445 1.133a4.128 4.128 0 0 0-2.798 3.34l-1.68 11.825" id="Shape" stroke="#D57568" stroke-width=".965" mask="url(#mask-74)"/></g></g><path d="M20.267 3.938l-1.24 10.65a2.787 2.787 0 0 0 1.403 2.753l36.693 20.604" id="Shape" stroke="#D57568" stroke-width=".965"/><g transform="translate(45 27)"><g transform="translate(.321 .48)"><g id="az-link" fill="#FFA598" fill-rule="nonzero"><path d="M22.34 6.194v4.813a4.83 4.83 0 0 1-2.453 4.205L4.605 23.849l-.768 3.519-3.2-1.786.203-1.438A2.41 2.41 0 0 1 0 22.313v-7.248a4.83 4.83 0 0 1 2.453-4.205l16.284-9.204a2.412 2.412 0 0 1 2.237-.073l.938-1.008 2.873 1.698-2.326 4.059-.119-.138z" id="az"/></g><g id="Clipped"><mask id="mask-76" fill="#fff"><use xlink:href="#path-75"/></mask><path id="Shape" fill="url(#linearGradient-55)" fill-rule="nonzero" mask="url(#mask-76)" d="M-1.169 12.125l7.62 3.883-.51 15.052-8.4-3.829z"/></g></g><path d="M5.966 13.064L21.98 4.013a2.415 2.415 0 0 1 3.599 2.25l-.43 6.949a4.83 4.83 0 0 1-2.332 3.842L7.171 26.457a2.415 2.415 0 0 1-3.659-2.07v-7.118a4.83 4.83 0 0 1 2.454-4.205z" id="Shape" fill="url(#linearGradient-77)" fill-rule="nonzero"/></g><circle id="Oval" fill="#FFF" fill-rule="nonzero" cx="21.667" cy="26.529" r="1"/><circle id="Oval" fill="#FFF" fill-rule="nonzero" cx="40.521" cy="37.059" r="1"/><circle id="Oval" fill="#FFF" fill-rule="nonzero" cx="30.481" cy="14.58" r="1"/><circle id="Oval" fill="#FFF" fill-rule="nonzero" cx="51.385" cy="26.73" r="1"/></g><g id="Group" stroke-width="1" fill="none" fill-rule="evenodd" transform="translate(68 156)"><path id="Shape" fill="#8A8A8A" fill-rule="nonzero" opacity=".403" d="M6.541 8.166l6.415-4.021v7.478l-6.39 4.006-6.44-4.006V4.145z"/><path id="Shape" fill="#FFDBB5" fill-rule="nonzero" d="M6.257 9.595l6.685-5.782L6.257.018.127 3.813z"/><path id="Shape" fill="#EBBE8F" fill-rule="nonzero" d="M6.517 7.813l6.439-4.037v7.631l-6.44 4.037z"/><path id="Shape" fill="#FFF" fill-rule="nonzero" d="M7.09 8.037l2.085-1.3v3.078l-2.086 1.3z"/><path id="Shape" stroke="#979797" stroke-width=".728" fill="#FFF" fill-rule="nonzero" d="M7.658 8.413v1.616l.948-.59V7.823z"/><g transform="translate(7.508 9.357)" id="Clipped"><mask id="mask-79" fill="#fff"><use xlink:href="#path-78"/></mask><path d="M.21.228h.06V.91H.21V.228zM.314.114h.062v.683H.314V.114zm.105 0h.102v.683H.42L.419.114zM.524 0h.073v.683H.524V0zm.105-.114H.73V.57H.629v-.684z" id="Shape" fill="#000" fill-rule="nonzero" mask="url(#mask-79)"/></g><g id="Clipped"><g transform="translate(8.242 8.901)"><mask id="mask-81" fill="#fff"><use xlink:href="#path-80"/></mask><path id="Shape" fill="#000" fill-rule="nonzero" mask="url(#mask-81)" d="M0 .342h1v1H0z"/></g><g transform="translate(8.242 8.901)"><mask id="mask-83" fill="#fff"><use xlink:href="#path-82"/></mask><path d="M.21.228h.06V.91H.21V.228zM.314.114h.062v.683H.314V.114zm.105 0h.102v.683H.42L.419.114z" id="Shape" fill="#000" fill-rule="nonzero" mask="url(#mask-83)"/></g></g><path id="Shape" fill="#59BEFF" fill-rule="nonzero" d="M7.517 8.301l.62-.374v.851l-.62.374z"/><g transform="translate(2.794 1.612)"><g id="aG-link" opacity=".536" fill="#FFBC78" fill-rule="nonzero"><path id="aG" d="M1.18 4.718L7.376.617 6.26.016.103 3.895z"/></g><g id="Clipped"><mask id="mask-85" fill="#fff"><use xlink:href="#path-84"/></mask><path d="M7.176.057L.262 4.499" id="Shape" stroke="#E5AB70" stroke-width=".728" mask="url(#mask-85)"/></g></g><path id="Shape" fill="#ECEFF0" fill-rule="nonzero" d="M7.975 8.02l.777-.467v.85l-.877.536z"/></g></g></g></g></g></g></svg>